<svg version="1.1" viewBox="0.0 0.0 960.0 540.0" fill="none" stroke="none" stroke-linecap="square" stroke-miterlimit="10" xmlns:xlink="http://www.w3.org/1999/xlink" xmlns="http://www.w3.org/2000/svg"><clipPath id="g26640edfb99_0_5.0"><path d="m0 0l960.0 0l0 540.0l-960.0 0l0 -540.0z" clip-rule="nonzero"/></clipPath><g clip-path="url(#g26640edfb99_0_5.0)"><path fill="#ffffff" d="m0 0l960.0 0l0 540.0l-960.0 0z" fill-rule="evenodd"/><path fill="#000000" fill-opacity="0.0" d="m536.96326 491.64743l149.35431 -291.74805" fill-rule="evenodd"/><path stroke="#cccccc" stroke-width="3.0" stroke-linejoin="round" stroke-linecap="butt" d="m536.96326 491.64743l141.15192 -275.72552" fill-rule="evenodd"/><path fill="#cccccc" stroke="#cccccc" stroke-width="3.0" stroke-linecap="butt" d="m682.526 218.17992l1.7930908 -14.376648l-10.614685 9.860596z" fill-rule="evenodd"/><path fill="#000000" fill-opacity="0.0" d="m19.850393 3.4461942l874.7087 0l0 60.125984l-874.7087 0z" fill-rule="evenodd"/><path fill="#f9a839" d="m48.069145 36.88969q2.3125 2.1875 4.46875 4.6875l-3.640625 3.296875q-5.390625 -6.390625 -12.34375 -11.484375l2.671875 -3.40625q2.9375 1.8125 5.390625 4.03125q3.421875 -3.421875 6.65625 -8.015625l-19.812502 0.890625l-0.765625 -4.671875l23.671877 -0.546875l1.625 -0.484375l2.3125 2.453125q1.4375 2.328125 -0.765625 2.078125q-3.0625 4.03125 -9.46875 11.171875zm32.15686 2.3125q4.640625 -1.78125 9.9375 -9.09375l2.703125 3.671875q-5.421875 7.390625 -13.1875 10.46875l-1.40625 0.6875l-2.859375 -2.125l0.421875 -1.03125l0 -21.6875l3.515625 0q2.59375 0.578125 0.875 2.0625l0 17.046875zm-19.390625 4.65625q6.984375 -6.703125 6.984375 -15.71875l0 -6.59375l3.53125 0q2.59375 0.59375 0.859375 2.046875l0 4.40625q0 11.328125 -7.5625 18.328125l-3.8125 -2.46875zm52.125 -16.078125l-18.234375 0l0 -4.265625l22.640625 0l0 20.140625l-4.40625 0l0 -1.453125l-18.234375 0l0 -4.25l18.234375 0l0 -10.171875zm10.223145 13.71875q16.984367 -3.9375 17.687492 -16.34375l-19.640617 0l0 -4.265625l20.562492 0l2.109375 -0.453125l1.953125 1.765625q-0.5625 18.28125 -19.328117 23.375l-3.34375 -4.078125zm56.923088 1.4375l-0.796875 3.859375l-16.046875 0q-5.5625 0 -8.4375 -3.34375l-4.265625 4.25l-2.859375 -4.015625l5.15625 -3.203125l0 -7.0625l-4.203125 0l0 -3.875l8.203125 0l0 10.890625q2.609375 2.5 7.1875 2.5l16.0625 0zm-14.25 -11.484375l-3.21875 0l0 1.109375l3.21875 0l0 -1.109375zm4.0 4.59375l0 0.59375l9.3125 0l0 3.859375l-9.3125 0l0 2.765625l-4.0 0l0 -2.765625l-8.9375 0l0 -3.859375l8.9375 0l0 -0.59375l-2.734375 0l-4.09375 0l0 -12.53125l6.828125 0l0 -0.734375l-8.671875 0l0 -3.859375l8.671875 0l0 -2.890625l3.21875 0q2.796875 0.375 0.78125 1.828125l0 1.0625l8.65625 0l0 3.859375l-8.65625 0l0 0.734375l7.078125 0l0 12.53125l-7.078125 0zm3.46875 -9.0625l-3.46875 0l0 0.984375l3.46875 0l0 -0.984375zm0 4.46875l-3.46875 0l0 1.109375l3.46875 0l0 -1.109375zm-7.46875 -4.46875l-3.21875 0l0 0.984375l3.21875 0l0 -0.984375zm-13.75 -9.578125q3.375 2.09375 5.609375 5.4375l-3.203125 3.1875q-2.390625 -3.1875 -5.25 -5.40625l2.84375 -3.21875zm35.390625 15.875l-4.59375 0l0 -3.46875l4.59375 0l0 -2.03125l-1.71875 0q-0.609375 0.8125 -2.453125 2.640625l-2.296875 -3.828125q5.109375 -5.375 6.84375 -10.718749l3.5625 1.031249q1.640625 1.59375 -0.234375 1.890625l-0.03125 -0.453125q3.0625 1.625 6.109375 4.375l-1.921875 4.25q-2.90625 -2.921875 -5.640625 -5.21875q-0.796875 1.609375 -1.421875 2.546875l5.96875 0l0 3.484375l-3.15625 0l0 2.03125l4.71875 0l0 3.46875l-4.71875 0l0 8.140625q1.640625 -0.421875 4.75 -1.296875l0.4375 3.40625q-3.8125 1.53125 -11.21875 3.578125q-1.359375 1.875 -1.890625 -0.046875l-0.625 -3.703125q3.125 -0.671875 4.9375 -1.078125l0 -9.0zm10.921875 -15.875q2.4375 2.75 3.625 5.625l-3.484375 2.140625q-1.515625 -2.84375 -3.46875 -5.625l3.328125 -2.140625zm-2.515625 17.875q-0.34375 2.59375 -1.453125 6.078125l-3.75 -0.421875q1.140625 -3.625 1.609375 -8.109375l3.15625 0.6875q2.375 0.796875 0.4375 1.765625zm13.046875 -10.203125l-3.59375 -1.59375l3.25 -6.34375l3.46875 1.5q1.125 1.125 -0.453125 1.65625l-2.671875 4.78125zm-7.28125 -9.046875l3.21875 0q3.34375 0.328125 0.78125 2.09375l0 5.90625l5.78125 0l0 17.921875l-1.96875 0q0.546875 0.390625 4.671875 1.609375l-1.53125 4.03125q-4.953125 -1.375 -8.4375 -4.40625l0.953125 -1.234375l-2.5625 0l0.5 0.765625q1.671875 2.671875 -1.0 1.796875q-3.359375 2.359375 -7.671875 3.59375l-1.9375 -3.6875q5.484375 -2.0625 6.03125 -2.46875l-2.078125 0l0 -17.921875l5.25 0l0 -8.0zm-1.640625 20.921875l0 1.515625l7.8125 0l0 -1.515625l-7.8125 0zm0 -4.71875l0 1.25l7.8125 0l0 -1.25l-7.8125 0zm0 -4.71875l0 1.25l7.8125 0l0 -1.25l-7.8125 0zm-15.890625 14.75q-0.171875 -3.375 -1.5625 -7.375l3.796875 -1.0q1.71875 4.203125 1.71875 7.375l-3.953125 1.0zm38.21875 -25.1875l3.5625 0q3.1875 0.59375 0.890625 2.09375l0.25 5.921875q0.140625 2.609375 0.578125 3.59375q3.09375 -1.34375 9.921875 -3.21875l1.828125 4.78125q-13.078125 2.328125 -17.125 6.375q-1.234375 1.234375 -1.234375 2.53125q0 0.90625 0.71875 1.625q0.71875 0.703125 3.3125 0.703125l13.296875 0l0 4.265625l-13.421875 0q-4.609375 0 -6.515625 -1.90625q-1.921875 -1.90625 -1.921875 -4.421875q0 -3.171875 2.3125 -5.46875q1.640625 -1.640625 4.875 -3.484375q-0.625 -1.515625 -0.75 -3.984375l-0.578125 -9.40625zm42.65773 10.796875q0.234375 4.328125 0 8.84375q3.546875 1.3125 7.8125 4.359375l-2.296875 3.671875q-3.3125 -2.5 -5.546875 -3.578125q0 1.546875 -1.640625 3.203125q-1.78125 1.765625 -5.078125 1.765625q-3.2968903 0 -5.0781403 -1.765625q-1.515625 -1.515625 -1.515625 -3.90625q0 -2.109375 1.25 -3.375q1.78125 -1.765625 5.2187653 -1.765625q1.78125 0 2.765625 0.21875q0.21875 -3.609375 0 -7.46875l-9.76564 0.65625l0 -4.140625l9.437515 -0.53125q-0.109375 -2.953125 -0.59375 -6.578125l3.59375 0q3.171875 0.546875 0.90625 2.09375q0.109375 2.359375 0.21875 4.296875l7.109375 -0.390625l0 4.125l-6.796875 0.265625zm-21.10939 17.71875q-0.625 -4.421875 -0.625 -9.328125q0 -10.703125 1.734375 -17.84375l3.609375 0.65625q2.34375 0.984375 0.234375 2.0625q-1.328125 4.21875 -1.328125 15.125q0 4.921875 0.796875 8.578125l-4.421875 0.75zm16.98439 -6.03125q-1.671875 -0.5 -2.75 -0.5q-1.5625 0 -2.1406403 0.578125q-0.453125 0.453125 -0.453125 0.828125q0 0.765625 0.3125 1.09375q0.71876526 0.71875 2.2812653 0.71875q1.515625 0 2.109375 -0.6875q0.71875 -0.828125 0.640625 -2.03125z" fill-rule="nonzero"/><path fill="#f9a839" d="m0 3.4356956l19.84252 0l0 60.125984l-19.84252 0z" fill-rule="evenodd"/><path stroke="#f9a839" stroke-width="1.0" stroke-linejoin="round" stroke-linecap="butt" d="m0 3.4356956l19.84252 0l0 60.125984l-19.84252 0z" fill-rule="evenodd"/><path fill="#595959" d="m16.430447 199.8924l0 0c0 -34.7809 53.9444 -62.97638 120.48819 -62.97638l0 0c66.54378 0 120.48819 28.19548 120.48819 62.97638l0 0c0 34.780884 -53.944412 62.97638 -120.48819 62.97638l0 0c-66.54379 0 -120.48819 -28.195496 -120.48819 -62.97638z" fill-rule="evenodd"/><path stroke="#595959" stroke-width="1.0" stroke-linejoin="round" stroke-linecap="butt" d="m16.430447 199.8924l0 0c0 -34.7809 53.9444 -62.97638 120.48819 -62.97638l0 0c66.54378 0 120.48819 28.19548 120.48819 62.97638l0 0c0 34.780884 -53.944412 62.97638 -120.48819 62.97638l0 0c-66.54379 0 -120.48819 -28.195496 -120.48819 -62.97638z" fill-rule="evenodd"/><path fill="#ffffff" d="m69.48113 195.36426q13.484375 -5.46875 19.140625 -16.03125l3.828125 0.90625q1.28125 0.1875 -0.1875 1.09375l-0.359375 0.734375q9.109375 8.75 18.765625 11.484375l-1.453125 4.734375q-12.390625 -4.921875 -19.3125 -13.671875q-4.921875 6.375 -9.296875 9.296875l19.3125 0l0 4.015625l-20.59375 0l0 -2.921875q-4.546875 3.09375 -8.015625 4.375l-1.828125 -4.015625zm31.359375 5.65625l3.265625 2.1875q0.734375 0.734375 -0.546875 0.90625q-3.8125 11.125 -6.921875 16.765625l-4.375 -1.8125q3.828125 -6.75 6.203125 -13.125l-23.328125 0l0 -4.015625l25.15625 0l0.546875 -0.90625zm26.046875 17.3125l-4.1875 0l0 -35.171875l28.609383 0l0 34.4375l-4.1875 0l0 -2.546875l-20.234383 0l0 3.28125zm20.234383 -21.328125l0 -10.390625l-20.234383 0l0 10.390625l20.234383 0zm0 14.578125l0 -11.109375l-20.234383 0l0 11.109375l20.234383 0zm46.65625 -18.21875q0.375 6.921875 0 13.84375q5.46875 2.015625 10.578125 5.65625l-2.1875 3.46875q-3.828125 -2.921875 -8.390625 -5.109375q0 3.28125 -2.0 5.28125q-2.1875 2.1875 -6.375 2.1875q-4.203125 0 -6.390625 -2.1875q-1.8125 -1.8125 -1.8125 -4.734375q0 -2.546875 1.453125 -4.015625q2.1875 -2.1875 6.5625 -2.1875q2.375 0 4.734375 0.546875q0.375 -6.1875 0 -12.5625l-13.484375 0.90625l0 -3.828125l13.125 -0.734375q-0.1875 -5.09375 -0.734375 -9.109375l3.828125 0q2.015625 0.375 0.375 1.453125q0.171875 3.828125 0.359375 7.484375l9.84375 -0.546875l0 3.828125l-9.484375 0.359375zm-27.515625 24.421875q-0.734375 -5.109375 -0.734375 -11.84375q0 -14.765625 2.1875 -23.703125l4.015625 0.734375q1.265625 0.546875 -0.1875 1.28125q-2.0 6.375 -2.0 21.6875q0 6.921875 0.90625 11.109375l-4.1875 0.734375zm23.6875 -8.015625q-3.09375 -0.921875 -4.734375 -0.921875q-2.546875 0 -3.640625 1.09375q-0.921875 0.921875 -0.921875 1.828125q0 1.453125 0.734375 2.1875q1.28125 1.28125 3.828125 1.28125q2.546875 0 3.640625 -1.28125q1.28125 -1.453125 1.09375 -4.1875z" fill-rule="nonzero"/><path fill="#f9a839" d="m16.430447 459.9685l0 0c0 -34.780884 53.9444 -62.97638 120.48819 -62.97638l0 0c66.54378 0 120.48819 28.195496 120.48819 62.97638l0 0c0 34.780884 -53.944412 62.97638 -120.48819 62.97638l0 0c-66.54379 0 -120.48819 -28.195496 -120.48819 -62.97638z" fill-rule="evenodd"/><path stroke="#f9a839" stroke-width="1.0" stroke-linejoin="round" stroke-linecap="butt" d="m16.430447 459.9685l0 0c0 -34.780884 53.9444 -62.97638 120.48819 -62.97638l0 0c66.54378 0 120.48819 28.195496 120.48819 62.97638l0 0c0 34.780884 -53.944412 62.97638 -120.48819 62.97638l0 0c-66.54379 0 -120.48819 -28.195496 -120.48819 -62.97638z" fill-rule="evenodd"/><path fill="#000000" d="m91.16863 441.23724l17.6875 0l0 35.53125q0 3.09375 -3.109375 3.09375l-4.546875 0l-0.546875 -3.453125l4.0 0q0.546875 0 0.546875 -0.546875l0 -9.84375l-10.375 0q-0.546875 9.65625 -12.953125 14.765625l-1.8125 -4.015625q11.109375 -2.921875 11.109375 -12.75l0 -22.78125zm-15.84375 24.953125l8.015625 0l0 -9.109375l-8.015625 0l0 9.109375zm0 -12.5625l8.015625 0l0 -7.84375l-8.015625 0l0 7.84375zm0 16.03125l0 3.09375l-3.65625 0l0 -30.4375l15.3125 0l0 27.34375l-11.65625 0zm29.875 -14.390625l-10.375 0l0 7.28125l10.375 0l0 -7.28125zm-10.375 -3.46875l10.375 0l0 -7.109375l-10.375 0l0 7.109375zm32.0625 26.609375l-4.1875 0l0 -35.171875l28.609383 0l0 34.4375l-4.1875 0l0 -2.546875l-20.234383 0l0 3.28125zm20.234383 -21.328125l0 -10.390625l-20.234383 0l0 10.390625l20.234383 0zm0 14.578125l0 -11.109375l-20.234383 0l0 11.109375l20.234383 0zm46.65625 -18.21875q0.375 6.921875 0 13.84375q5.46875 2.015625 10.578125 5.65625l-2.1875 3.46875q-3.828125 -2.921875 -8.390625 -5.109375q0 3.28125 -2.0 5.28125q-2.1875 2.1875 -6.375 2.1875q-4.203125 0 -6.390625 -2.1875q-1.8125 -1.8125 -1.8125 -4.734375q0 -2.546875 1.453125 -4.015625q2.1875 -2.1875 6.5625 -2.1875q2.375 0 4.734375 0.546875q0.375 -6.1875 0 -12.5625l-13.484375 0.90625l0 -3.828125l13.125 -0.734375q-0.1875 -5.09375 -0.734375 -9.109375l3.828125 0q2.015625 0.375 0.375 1.453125q0.171875 3.828125 0.359375 7.484375l9.84375 -0.546875l0 3.828125l-9.484375 0.359375zm-27.515625 24.421875q-0.734375 -5.109375 -0.734375 -11.84375q0 -14.765625 2.1875 -23.703125l4.015625 0.734375q1.265625 0.546875 -0.1875 1.28125q-2.0 6.375 -2.0 21.6875q0 6.921875 0.90625 11.109375l-4.1875 0.734375zm23.6875 -8.015625q-3.09375 -0.921875 -4.734375 -0.921875q-2.546875 0 -3.640625 1.09375q-0.921875 0.921875 -0.921875 1.828125q0 1.453125 0.734375 2.1875q1.28125 1.28125 3.828125 1.28125q2.546875 0 3.640625 -1.28125q1.28125 -1.453125 1.09375 -4.1875z" fill-rule="nonzero"/><path fill="#ffab40" d="m334.979 245.42445l0 0c0 -28.492676 45.21573 -51.590546 100.99213 -51.590546l0 0c55.776398 0 100.99213 23.09787 100.99213 51.590546l0 0c0 28.492691 -45.21573 51.59056 -100.99213 51.59056l0 0c-55.776398 0 -100.99213 -23.09787 -100.99213 -51.59056z" fill-rule="evenodd"/><path stroke="#ffab40" stroke-width="1.0" stroke-linejoin="round" stroke-linecap="butt" d="m334.979 245.42445l0 0c0 -28.492676 45.21573 -51.590546 100.99213 -51.590546l0 0c55.776398 0 100.99213 23.09787 100.99213 51.590546l0 0c0 28.492691 -45.21573 51.59056 -100.99213 51.59056l0 0c-55.776398 0 -100.99213 -23.09787 -100.99213 -51.59056z" fill-rule="evenodd"/><path fill="#000000" d="m425.22113 262.22446q0.71875 0 0.71875 -0.734375l0 -2.734375l-12.9375 0l0 7.296875l-3.640625 0l0 -21.140625l20.234375 0l0 18.40625q0 2.375 -2.5625 2.375l-4.0 0l-0.546875 -3.46875l2.734375 0zm-20.78125 -34.453125l0 31.53125l-3.09375 0l0 -1.8125l-5.109375 0l0 3.828125l-3.09375 0l0 -33.546875l11.296875 0zm-3.09375 3.46875l-5.109375 0l0 9.65625l5.109375 0l0 -9.65625zm0 12.578125l-5.109375 0l0 10.203125l5.109375 0l0 -10.203125zm16.03125 -15.5l0 -4.359375l3.46875 0q1.453125 0.171875 0.1875 1.09375l0 3.265625l10.015625 0l0 2.921875l-10.015625 0l0 2.734375l8.015625 0l0 2.921875l-8.015625 0l0 2.90625l12.390625 0l0 2.921875l-27.53125 0l0 -2.921875l11.484375 0l0 -2.90625l-8.015625 0l0 -2.921875l8.015625 0l0 -2.734375l-9.84375 0l0 -2.921875l9.84375 0zm8.5625 19.515625l-12.9375 0l0 2.546875l12.9375 0l0 -2.546875zm-12.9375 5.453125l0 2.5625l12.9375 0l0 -2.5625l-12.9375 0zm53.40625 -11.84375q0.1875 -3.453125 -2.0 -3.453125q-3.109375 0 -12.03125 8.921875l0 18.234375l-3.65625 0l0 -14.953125l-8.015625 10.03125l-2.90625 -2.921875l7.28125 -8.5625q2.015625 -2.546875 3.640625 -5.28125l0 -4.375l-8.015625 2.734375l-1.09375 -3.828125l9.109375 -2.375l0 -10.75l3.28125 0q1.640625 0.359375 0.375 1.453125l0 8.203125l2.0 1.09375q1.640625 0.734375 -0.359375 1.640625l-1.640625 3.46875l0 1.265625q8.5625 -8.015625 12.9375 -8.015625q5.46875 0 4.921875 7.296875l-0.90625 14.03125q-0.1875 2.90625 2.171875 2.90625q2.375 0 3.46875 -1.265625q1.640625 -2.015625 2.734375 -4.75l3.09375 2.5625q-1.8125 3.453125 -3.453125 5.09375q-2.375 2.375 -5.46875 2.375q-6.75 0 -6.375 -6.921875l0.90625 -13.859375z" fill-rule="nonzero"/><path fill="#0097a7" d="m334.979 368.53595l0 0c0 -28.492676 45.21573 -51.590576 100.99213 -51.590576l0 0c55.776398 0 100.99213 23.0979 100.99213 51.590576l0 0c0 28.492676 -45.21573 51.590546 -100.99213 51.590546l0 0c-55.776398 0 -100.99213 -23.09787 -100.99213 -51.590546z" fill-rule="evenodd"/><path stroke="#0097a7" stroke-width="1.0" stroke-linejoin="round" stroke-linecap="butt" d="m334.979 368.53595l0 0c0 -28.492676 45.21573 -51.590576 100.99213 -51.590576l0 0c55.776398 0 100.99213 23.0979 100.99213 51.590576l0 0c0 28.492676 -45.21573 51.590546 -100.99213 51.590546l0 0c-55.776398 0 -100.99213 -23.09787 -100.99213 -51.590546z" fill-rule="evenodd"/><path fill="#000000" d="m425.31616 383.14844l-9.125 0l-3.453125 3.640625l15.125 -0.359375l-3.640625 -2.1875l1.09375 -1.09375zm-24.421875 3.640625l8.015625 0l3.09375 -3.640625l-14.03125 0l0 -2.1875l41.734375 0l0 2.1875l-11.484375 0q4.375 2.0 9.296875 5.109375l-2.375 2.734375l-3.640625 -2.375l-28.96875 1.453125q-0.1875 1.28125 -0.921875 0.546875l-0.71875 -3.828125zm19.3125 -20.59375l0 8.5625l-3.09375 0l0 -8.5625l-14.953125 0l0 4.5625l-3.09375 0l0 -6.75l18.046875 0l0 -2.1875l-12.578125 0l0 -2.1875l27.875 0l0 2.1875l-12.203125 0l0 2.1875l18.21875 0l0 6.5625l-3.09375 0l0 -4.375l-15.125 0zm-16.40625 10.390625l29.890625 0l0 2.1875l-29.890625 0l0 -2.1875zm29.703125 -28.796875l0 9.65625l-29.875 0l0 -9.65625l29.875 0zm-29.15625 20.421875l10.578125 0l0 2.1875l-10.578125 0l0 -2.1875zm18.046875 4.0l10.75 0l0 2.1875l-10.75 0l0 -2.1875zm8.015625 -16.953125l0 -2.0l-23.6875 0l0 2.0l23.6875 0zm-23.6875 -5.28125l0 2.0l23.6875 0l0 -2.0l-23.6875 0zm-2.375 22.234375l10.578125 0l0 2.1875l-10.578125 0l0 -2.1875zm18.046875 -4.0l10.75 0l0 2.1875l-10.75 0l0 -2.1875zm44.65625 0.171875q0 -12.390625 -0.734375 -19.125l3.640625 0q2.015625 0.171875 0.375 1.453125q0.546875 5.828125 0.546875 17.859375q0 13.671875 -12.953125 20.59375l-3.09375 -3.09375q12.21875 -5.84375 12.21875 -17.6875zm-12.40625 6.015625q-1.625 1.28125 -3.640625 1.28125q-1.265625 0 -2.359375 -1.09375q-1.28125 -1.28125 -1.28125 -10.9375q0 -7.296875 0.734375 -13.3125l4.0 0q1.46875 0.546875 0 1.28125q-0.90625 4.375 -0.90625 12.03125q0 7.84375 0.734375 7.84375q0.546875 0 1.453125 -0.734375q1.265625 -1.09375 4.1875 -4.921875l2.734375 2.734375q-3.09375 3.828125 -5.65625 5.828125z" fill-rule="nonzero"/><path fill="#b7b7b7" d="m334.979 491.64743l0 0c0 -28.492676 45.21573 -51.590576 100.99213 -51.590576l0 0c55.776398 0 100.99213 23.0979 100.99213 51.590576l0 0c0 28.492645 -45.21573 51.590546 -100.99213 51.590546l0 0c-55.776398 0 -100.99213 -23.0979 -100.99213 -51.590546z" fill-rule="evenodd"/><path stroke="#b7b7b7" stroke-width="1.0" stroke-linejoin="round" stroke-linecap="butt" d="m334.979 491.64743l0 0c0 -28.492676 45.21573 -51.590576 100.99213 -51.590576l0 0c55.776398 0 100.99213 23.0979 100.99213 51.590576l0 0c0 28.492645 -45.21573 51.590546 -100.99213 51.590546l0 0c-55.776398 0 -100.99213 -23.0979 -100.99213 -51.590546z" fill-rule="evenodd"/><path fill="#000000" d="m437.79926 493.8693l-3.65625 0l0 -12.9375l-14.390625 0l0 6.1875l-3.640625 0l0 -9.109375l18.03125 0l0 -2.921875l-14.03125 0l0 -3.453125l31.890625 0l0 3.453125l-14.203125 0l0 2.921875l17.859375 0l0 8.75l-3.65625 0l0 -5.828125l-14.203125 0l0 12.9375zm-5.65625 -2.0l-10.390625 0l0 -2.921875l10.390625 0l0 2.921875zm0 -5.46875l-10.390625 0l0 -2.921875l10.390625 0l0 2.921875zm18.40625 0l-10.9375 0l0 -2.921875l10.9375 0l0 2.921875zm1.828125 26.421844l-3.65625 0l0 -1.2812195l-28.609375 0l0 -3.453125l28.609375 0l0 -3.65625l-28.609375 0l0 -2.90625l28.609375 0l0 -2.734375l-28.609375 0l0 -3.46875l32.265625 0l0 17.49997zm-1.828125 -20.953094l-10.9375 0l0 -2.921875l10.9375 0l0 2.921875z" fill-rule="nonzero"/><path fill="#4285f4" d="m334.979 122.31233l0 0c0 -28.492676 45.21573 -51.590553 100.99213 -51.590553l0 0c55.776398 0 100.99213 23.097878 100.99213 51.590553l0 0c0 28.492676 -45.21573 51.590546 -100.99213 51.590546l0 0c-55.776398 0 -100.99213 -23.09787 -100.99213 -51.590546z" fill-rule="evenodd"/><path stroke="#4285f4" stroke-width="1.0" stroke-linejoin="round" stroke-linecap="butt" d="m334.979 122.31233l0 0c0 -28.492676 45.21573 -51.590553 100.99213 -51.590553l0 0c55.776398 0 100.99213 23.097878 100.99213 51.590553l0 0c0 28.492676 -45.21573 51.590546 -100.99213 51.590546l0 0c-55.776398 0 -100.99213 -23.09787 -100.99213 -51.590546z" fill-rule="evenodd"/><path fill="#000000" d="m430.31488 125.62795q-2.90625 -2.375 -6.546875 -4.1875l2.171875 -2.921875q3.46875 1.640625 6.5625 4.015625l-2.1875 3.09375zm19.875 12.390633q0.71875 0 0.71875 -0.734375l0 -20.953133l-13.109375 0l0 24.421883l-3.65625 0l0 -24.421883l-12.75 0l0 25.515633l-3.640625 0l0 -28.984383l16.390625 0l0 -5.28125l-18.578125 0l0 -3.46875l41.1875 0l0 3.46875l-18.953125 0l0 5.28125l16.765625 0l0 26.250008q0 2.921875 -2.921875 2.921875l-4.921875 0l-0.90625 -4.015625l4.375 0zm-8.390625 -11.296883q4.375 2.1875076 7.46875 4.5468826l-2.171875 3.46875q-2.5625 -2.1875 -7.296875 -4.921875l2.0 -3.0937576zm0.1875 -8.390625q3.640625 1.640625 6.921875 4.203125l-2.1875 3.09375q-3.640625 -2.734375 -6.734375 -4.375l2.0 -2.921875zm-11.484375 16.953133q-2.0 -1.828125 -7.109375 -4.921875l2.1875 -3.0937576q3.828125 2.0000076 7.296875 4.7343826l-2.375 3.28125z" fill-rule="nonzero"/><path fill="#000000" fill-opacity="0.0" d="m257.40683 199.8924l77.5748 -77.57481" fill-rule="evenodd"/><path stroke="#595959" stroke-width="3.0" stroke-linejoin="round" stroke-linecap="butt" d="m257.40683 199.8924l64.84689 -64.84688" fill-rule="evenodd"/><path fill="#595959" stroke="#595959" stroke-width="3.0" stroke-linecap="butt" d="m325.75757 138.54936l6.1228943 -13.130615l-13.130615 6.1229095z" fill-rule="evenodd"/><path fill="#000000" fill-opacity="0.0" d="m257.40683 199.8924l77.5748 45.543304" fill-rule="evenodd"/><path stroke="#595959" stroke-width="3.0" stroke-linejoin="round" stroke-linecap="butt" d="m257.40683 199.8924l62.052216 36.430145" fill-rule="evenodd"/><path fill="#595959" stroke="#595959" stroke-width="3.0" stroke-linecap="butt" d="m316.9503 240.59575l14.249268 2.619522l-9.231781 -11.165909z" fill-rule="evenodd"/><path fill="#000000" fill-opacity="0.0" d="m257.40683 199.8924l77.5748 168.62991" fill-rule="evenodd"/><path stroke="#595959" stroke-width="3.0" stroke-linejoin="round" stroke-linecap="butt" d="m257.40683 199.8924l70.05209 152.27725" fill-rule="evenodd"/><path fill="#595959" stroke="#595959" stroke-width="3.0" stroke-linecap="butt" d="m322.9572 354.24057l10.191498 10.297424l-1.1880798 -14.4392395z" fill-rule="evenodd"/><path fill="#000000" fill-opacity="0.0" d="m257.40683 199.8924l77.5748 291.74802" fill-rule="evenodd"/><path stroke="#595959" stroke-width="3.0" stroke-linejoin="round" stroke-linecap="butt" d="m257.40683 199.8924l72.9494 274.35248" fill-rule="evenodd"/><path fill="#595959" stroke="#595959" stroke-width="3.0" stroke-linecap="butt" d="m325.5674 475.5182l8.287231 11.883789l1.2903748 -14.43045z" fill-rule="evenodd"/><path fill="#000000" fill-opacity="0.0" d="m257.40683 459.9685l77.5748 -337.6693" fill-rule="evenodd"/><path stroke="#f9a839" stroke-width="3.0" stroke-linejoin="round" stroke-linecap="butt" d="m257.40683 459.9685l73.544525 -320.12628" fill-rule="evenodd"/><path fill="#f9a839" stroke="#f9a839" stroke-width="3.0" stroke-linecap="butt" d="m335.78076 140.9517l-1.7810974 -14.378136l-7.8776855 12.159157z" fill-rule="evenodd"/><path fill="#000000" fill-opacity="0.0" d="m257.40683 459.9685l77.5748 -214.55118" fill-rule="evenodd"/><path stroke="#f9a839" stroke-width="3.0" stroke-linejoin="round" stroke-linecap="butt" d="m257.40683 459.9685l71.454346 -197.62369" fill-rule="evenodd"/><path fill="#f9a839" stroke="#f9a839" stroke-width="3.0" stroke-linecap="butt" d="m333.52115 264.02972l-0.030761719 -14.488007l-9.289154 11.118225z" fill-rule="evenodd"/><path fill="#000000" fill-opacity="0.0" d="m257.40683 459.9685l77.5748 -91.433075" fill-rule="evenodd"/><path stroke="#f9a839" stroke-width="3.0" stroke-linejoin="round" stroke-linecap="butt" d="m257.40683 459.9685l65.92963 -77.70755" fill-rule="evenodd"/><path fill="#f9a839" stroke="#f9a839" stroke-width="3.0" stroke-linecap="butt" d="m327.11493 385.46674l5.029358 -13.587067l-12.586304 7.1755066z" fill-rule="evenodd"/><path fill="#000000" fill-opacity="0.0" d="m257.40683 459.9685l77.5748 31.685028" fill-rule="evenodd"/><path stroke="#f9a839" stroke-width="3.0" stroke-linejoin="round" stroke-linecap="butt" d="m257.40683 459.9685l60.911194 24.878845" fill-rule="evenodd"/><path fill="#f9a839" stroke="#f9a839" stroke-width="3.0" stroke-linecap="butt" d="m316.44437 489.4347l14.477173 0.56051636l-10.729858 -9.735138z" fill-rule="evenodd"/><path fill="#eeeeee" d="m686.30707 199.8924l0 0c0 -34.7809 53.944397 -62.97638 120.48822 -62.97638l0 0c66.54376 0 120.48816 28.19548 120.48816 62.97638l0 0c0 34.780884 -53.944397 62.97638 -120.48816 62.97638l0 0c-66.54382 0 -120.48822 -28.195496 -120.48822 -62.97638z" fill-rule="evenodd"/><path stroke="#595959" stroke-width="1.0" stroke-linejoin="round" stroke-linecap="butt" d="m686.30707 199.8924l0 0c0 -34.7809 53.944397 -62.97638 120.48822 -62.97638l0 0c66.54376 0 120.48816 28.19548 120.48816 62.97638l0 0c0 34.780884 -53.944397 62.97638 -120.48816 62.97638l0 0c-66.54382 0 -120.48822 -28.195496 -120.48822 -62.97638z" fill-rule="evenodd"/><path fill="#000000" d="m824.2897 199.19238q-10.5625 0.375 -16.578125 2.921875l-1.09375 -3.640625q7.828125 -3.109375 16.9375 -3.109375l0.734375 3.828125zm0.90625 15.125l0 4.015625l-8.015625 0q-6.921875 0 -13.125 -3.28125l1.640625 -3.28125q4.75 2.546875 11.484375 2.546875l8.015625 0zm-16.21875 -22.78125q-4.734375 0.921875 -8.921875 1.46875q-2.734375 16.21875 -6.75 25.6875l-4.0 -1.265625q4.921875 -11.484375 6.921875 -24.0625q-4.5625 0.359375 -7.84375 0.359375l-0.71875 -3.640625q5.09375 0 9.109375 -0.359375q0.71875 -5.65625 1.265625 -9.84375l3.65625 0.734375q2.0 0.546875 0.359375 1.453125q-0.546875 2.1875 -1.453125 7.28125q4.1875 -0.546875 7.65625 -1.453125l0.71875 3.640625zm10.9375 -12.390625q2.921875 1.640625 7.109375 4.734375l-1.640625 2.5625q-4.015625 -2.921875 -7.109375 -4.75l1.640625 -2.546875zm-3.640625 3.640625q3.28125 2.015625 7.109375 4.75l-1.640625 2.546875q-4.015625 -2.734375 -7.109375 -4.734375l1.640625 -2.5625z" fill-rule="nonzero"/><path fill="#eeeeee" d="m686.30707 459.9685l0 0c0 -34.780884 53.944397 -62.97638 120.48822 -62.97638l0 0c66.54376 0 120.48816 28.195496 120.48816 62.97638l0 0c0 34.780884 -53.944397 62.97638 -120.48816 62.97638l0 0c-66.54382 0 -120.48822 -28.195496 -120.48822 -62.97638z" fill-rule="evenodd"/><path stroke="#595959" stroke-width="1.0" stroke-linejoin="round" stroke-linecap="butt" d="m686.30707 459.9685l0 0c0 -34.780884 53.944397 -62.97638 120.48822 -62.97638l0 0c66.54376 0 120.48816 28.195496 120.48816 62.97638l0 0c0 34.780884 -53.944397 62.97638 -120.48816 62.97638l0 0c-66.54382 0 -120.48822 -28.195496 -120.48822 -62.97638z" fill-rule="evenodd"/><path fill="#000000" d="m787.1965 448.15912q-6.375 0 -10.015625 1.265625q-4.015625 1.46875 -7.46875 4.921875q-3.46875 3.46875 -3.46875 8.9375q0 4.375 2.734375 7.109375q3.640625 3.640625 14.03125 4.0l-1.453125 4.015625q-10.75 -0.546875 -14.953125 -4.734375q-4.1875 -4.203125 -4.1875 -10.203125q0 -8.578125 6.75 -13.5q-8.578125 1.28125 -17.5 2.5625l-1.09375 -4.203125q17.859375 -1.265625 35.90625 -4.375l0.71875 4.203125zm-4.0 14.21875q-4.015625 -2.921875 -6.921875 -4.5625l1.8125 -2.1875q2.734375 1.640625 6.921875 4.5625l-1.8125 2.1875zm3.640625 -4.375q-4.375 -3.109375 -6.921875 -4.5625l1.828125 -2.1875q2.546875 1.453125 6.921875 4.5625l-1.828125 2.1875zm25.52185 9.28125q-2.1875 1.28125 -4.5625 1.28125q-3.09375 0 -4.734375 -1.640625q-2.1875 -2.1875 -2.1875 -4.921875q0 -2.90625 2.1875 -5.09375q2.1875 -2.1875 5.46875 -2.1875q2.1875 0 4.1875 0.546875l0 -4.015625l-20.046875 1.28125l-0.734375 -3.828125l20.78125 -0.921875l0 -8.5625l3.28125 0q2.0 0.375 0.359375 1.46875l0 6.921875l15.5 -1.09375l0 3.828125l-15.5 0.71875l0 6.9375q0.734375 3.28125 0.734375 7.28125q-0.1875 9.296875 -10.390625 15.671875l-3.46875 -2.546875q9.125 -5.28125 9.125 -11.125zm-3.46875 -9.46875q-2.0 0 -3.28125 1.28125q-1.09375 1.09375 -1.09375 2.90625q0 1.640625 0.90625 2.5625q0.921875 0.90625 2.921875 0.90625q2.0 0 3.28125 -1.28125q1.09375 -1.09375 1.09375 -2.734375q0 -1.640625 -1.09375 -2.734375q-0.90625 -0.90625 -2.734375 -0.90625zm41.36499 12.03125q1.828125 1.8125 1.828125 4.546875q0 2.734375 -1.828125 4.5625q-1.8125 1.828125 -4.546875 1.828125q-2.734375 0 -4.5625 -1.828125q-1.8125 -1.828125 -1.8125 -4.5625q0 -2.734375 1.8125 -4.546875q1.828125 -1.828125 4.5625 -1.828125q2.734375 0 4.546875 1.828125zm-1.640625 7.46875q1.28125 -1.28125 1.28125 -2.921875q0 -1.640625 -1.28125 -2.90625q-1.265625 -1.28125 -2.90625 -1.28125q-1.640625 0 -2.921875 1.28125q-1.265625 1.265625 -1.265625 2.90625q0 1.640625 1.265625 2.921875q1.28125 1.28125 2.921875 1.28125q1.640625 0 2.90625 -1.28125z" fill-rule="nonzero"/><path fill="#000000" fill-opacity="0.0" d="m536.96326 122.31233l149.35431 77.5748" fill-rule="evenodd"/><path stroke="#4285f4" stroke-width="3.0" stroke-linejoin="round" stroke-linecap="butt" d="m536.96326 122.312325l133.3805 69.27801" fill-rule="evenodd"/><path fill="#4285f4" stroke="#4285f4" stroke-width="3.0" stroke-linecap="butt" d="m668.05975 195.98773l14.365784 1.8778839l-9.7977295 -10.672714z" fill-rule="evenodd"/><path fill="#000000" fill-opacity="0.0" d="m536.96326 122.31233l149.35431 337.6693" fill-rule="evenodd"/><path stroke="#4285f4" stroke-width="3.0" stroke-linejoin="round" stroke-linecap="butt" d="m536.96326 122.312325l142.07318 321.2077" fill-rule="evenodd"/><path fill="#4285f4" stroke="#4285f4" stroke-width="3.0" stroke-linecap="butt" d="m674.50476 445.5244l10.038757 10.44632l-0.9753418 -14.455139z" fill-rule="evenodd"/><path fill="#000000" fill-opacity="0.0" d="m536.96326 245.42445l149.35431 -45.543304" fill-rule="evenodd"/><path stroke="#ffab40" stroke-width="3.0" stroke-linejoin="round" stroke-linecap="butt" d="m536.96326 245.42445l132.13702 -40.293137" fill-rule="evenodd"/><path fill="#ffab40" stroke="#ffab40" stroke-width="3.0" stroke-linecap="butt" d="m670.5456 209.87103l11.576965 -8.710678l-14.46759 -0.76878357z" fill-rule="evenodd"/><path fill="#000000" fill-opacity="0.0" d="m536.96326 245.42445l149.35431 214.5512" fill-rule="evenodd"/><path stroke="#ffab40" stroke-width="3.0" stroke-linejoin="round" stroke-linecap="butt" d="m536.96326 245.42445l139.07043 199.77818" fill-rule="evenodd"/><path fill="#ffab40" stroke="#ffab40" stroke-width="3.0" stroke-linecap="butt" d="m671.96686 448.03366l11.845032 8.342529l-3.7113037 -14.004608z" fill-rule="evenodd"/><path fill="#000000" fill-opacity="0.0" d="m536.96326 368.53595l149.35431 -168.62993" fill-rule="evenodd"/><path stroke="#0097a7" stroke-width="3.0" stroke-linejoin="round" stroke-linecap="butt" d="m536.96326 368.53592l137.41986 -155.15515" fill-rule="evenodd"/><path fill="#0097a7" stroke="#0097a7" stroke-width="3.0" stroke-linecap="butt" d="m678.0925 216.66618l5.3171997 -13.4770355l-12.736084 6.9061737z" fill-rule="evenodd"/><path fill="#000000" fill-opacity="0.0" d="m536.96326 368.53595l149.35431 91.433044" fill-rule="evenodd"/><path stroke="#0097a7" stroke-width="3.0" stroke-linejoin="round" stroke-linecap="butt" d="m536.96326 368.53592l134.00262 82.03494" fill-rule="evenodd"/><path fill="#0097a7" stroke="#0097a7" stroke-width="3.0" stroke-linecap="butt" d="m668.37866 454.797l14.198486 2.882141l-9.024048 -11.334442z" fill-rule="evenodd"/><path fill="#000000" fill-opacity="0.0" d="m536.96326 491.64743l149.35431 -31.685059" fill-rule="evenodd"/><path stroke="#cccccc" stroke-width="3.0" stroke-linejoin="round" stroke-linecap="butt" d="m536.96326 491.64743l131.74622 -27.949524" fill-rule="evenodd"/><path fill="#cccccc" stroke="#cccccc" stroke-width="3.0" stroke-linecap="butt" d="m669.7378 468.54523l12.289551 -7.6726685l-14.346252 -2.0219727z" fill-rule="evenodd"/><path fill="#000000" fill-opacity="0.0" d="m236.59317 122.29921l77.5748 0l0 48.472443l-77.5748 0z" fill-rule="evenodd"/><path fill="#595959" d="m254.25076 152.22984l6.5 -6.71875q0.609375 -0.609375 0.96875 -1.109375q0.359375 -0.5 0.515625 -0.9375q0.171875 -0.453125 0.171875 -0.90625q0 -0.984375 -0.640625 -1.546875q-0.625 -0.5625 -1.65625 -0.5625q-1.015625 0 -1.828125 0.546875q-0.796875 0.53125 -1.53125 1.75l-2.53125 -2.1875q1.015625 -1.703125 2.578125 -2.5625q1.5625 -0.859375 3.578125 -0.859375q1.75 0 3.03125 0.65625q1.28125 0.640625 1.984375 1.84375q0.71875 1.1875 0.71875 2.796875q0 1.015625 -0.265625 1.875q-0.265625 0.84375 -0.859375 1.671875q-0.578125 0.828125 -1.5625 1.8125l-4.515625 4.484375l-4.65625 -0.046875zm0 2.109375l0 -2.109375l3.1875 -1.109375l9.0 0l0 3.21875l-12.1875 0zm19.051575 0.265625q-1.75 0 -3.28125 -0.609375q-1.515625 -0.609375 -2.53125 -1.765625l2.453125 -2.421875q0.453125 0.671875 1.328125 1.09375q0.875 0.40625 1.90625 0.40625q0.921875 0 1.59375 -0.3125q0.671875 -0.328125 1.046875 -0.9375q0.390625 -0.609375 0.390625 -1.4375q0 -0.828125 -0.390625 -1.421875q-0.375 -0.609375 -1.0625 -0.9375q-0.6875 -0.328125 -1.546875 -0.328125q-0.859375 0 -1.578125 0.234375q-0.71875 0.234375 -1.328125 0.6875l0.3125 -2.40625q0.546875 -0.421875 1.046875 -0.703125q0.515625 -0.28125 1.109375 -0.421875q0.609375 -0.140625 1.421875 -0.140625q1.875 0 3.15625 0.765625q1.28125 0.765625 1.9375 2.046875q0.671875 1.265625 0.671875 2.796875q0 1.6875 -0.828125 3.015625q-0.828125 1.3125 -2.328125 2.0625q-1.484375 0.734375 -3.5 0.734375zm-3.0 -7.75l-1.625 -1.515625l0.8125 -7.9375l3.40625 0l-0.890625 7.859375l-1.703125 1.59375zm-0.3125 -6.265625l-0.5 -3.1875l9.53125 0l0 3.1875l-9.03125 0zm12.127472 13.75l10.140625 -16.9375l3.359375 0l-10.140625 16.9375l-3.359375 0zm10.609375 0.234375q-0.984375 0 -1.796875 -0.46875q-0.796875 -0.484375 -1.28125 -1.28125q-0.484375 -0.8125 -0.484375 -1.796875q0 -1.0 0.484375 -1.78125q0.484375 -0.78125 1.265625 -1.265625q0.796875 -0.484375 1.78125 -0.484375q1.03125 0 1.828125 0.484375q0.8125 0.484375 1.28125 1.265625q0.484375 0.78125 0.484375 1.78125q0 0.984375 -0.484375 1.796875q-0.46875 0.8125 -1.28125 1.28125q-0.796875 0.46875 -1.796875 0.46875zm0 -2.484375q0.453125 0 0.734375 -0.28125q0.296875 -0.296875 0.296875 -0.78125q0 -0.4375 -0.296875 -0.734375q-0.28125 -0.296875 -0.734375 -0.296875q-0.4375 0 -0.734375 0.296875q-0.28125 0.296875 -0.28125 0.734375q0 0.484375 0.28125 0.78125q0.296875 0.28125 0.734375 0.28125zm-7.734375 -7.875q-0.984375 0 -1.796875 -0.46875q-0.796875 -0.46875 -1.28125 -1.265625q-0.46875 -0.8125 -0.46875 -1.828125q0 -0.96875 0.46875 -1.765625q0.484375 -0.796875 1.28125 -1.265625q0.796875 -0.46875 1.765625 -0.46875q1.046875 0 1.84375 0.46875q0.796875 0.46875 1.28125 1.265625q0.484375 0.796875 0.484375 1.765625q0 1.015625 -0.484375 1.828125q-0.484375 0.796875 -1.28125 1.265625q-0.796875 0.46875 -1.8125 0.46875zm0 -2.5q0.453125 0 0.734375 -0.28125q0.296875 -0.296875 0.296875 -0.75q0 -0.453125 -0.296875 -0.734375q-0.28125 -0.296875 -0.734375 -0.296875q-0.4375 0 -0.71875 0.296875q-0.28125 0.28125 -0.28125 0.734375q0 0.453125 0.28125 0.75q0.28125 0.28125 0.71875 0.28125z" fill-rule="nonzero"/><path fill="#000000" fill-opacity="0.0" d="m252.59317 175.65617l77.5748 0l0 48.472443l-77.5748 0z" fill-rule="evenodd"/><path fill="#595959" d="m270.25076 205.58679l6.5 -6.71875q0.609375 -0.609375 0.96875 -1.109375q0.359375 -0.5 0.515625 -0.9375q0.171875 -0.453125 0.171875 -0.90625q0 -0.984375 -0.640625 -1.546875q-0.625 -0.5625 -1.65625 -0.5625q-1.015625 0 -1.828125 0.546875q-0.796875 0.53125 -1.53125 1.75l-2.53125 -2.1875q1.015625 -1.703125 2.578125 -2.5625q1.5625 -0.859375 3.578125 -0.859375q1.75 0 3.03125 0.65625q1.28125 0.640625 1.984375 1.84375q0.71875 1.1875 0.71875 2.796875q0 1.015625 -0.265625 1.875q-0.265625 0.84375 -0.859375 1.671875q-0.578125 0.828125 -1.5625 1.8125l-4.515625 4.484375l-4.65625 -0.046875zm0 2.109375l0 -2.109375l3.1875 -1.109375l9.0 0l0 3.21875l-12.1875 0zm19.051575 0.265625q-1.75 0 -3.28125 -0.609375q-1.515625 -0.609375 -2.53125 -1.765625l2.453125 -2.421875q0.453125 0.671875 1.328125 1.09375q0.875 0.40625 1.90625 0.40625q0.921875 0 1.59375 -0.3125q0.671875 -0.328125 1.046875 -0.9375q0.390625 -0.609375 0.390625 -1.4375q0 -0.828125 -0.390625 -1.421875q-0.375 -0.609375 -1.0625 -0.9375q-0.6875 -0.328125 -1.546875 -0.328125q-0.859375 0 -1.578125 0.234375q-0.71875 0.234375 -1.328125 0.6875l0.3125 -2.40625q0.546875 -0.421875 1.046875 -0.703125q0.515625 -0.28125 1.109375 -0.421875q0.609375 -0.140625 1.421875 -0.140625q1.875 0 3.15625 0.765625q1.28125 0.765625 1.9375 2.046875q0.671875 1.265625 0.671875 2.796875q0 1.6875 -0.828125 3.015625q-0.828125 1.3125 -2.328125 2.0625q-1.484375 0.734375 -3.5 0.734375zm-3.0 -7.75l-1.625 -1.515625l0.8125 -7.9375l3.40625 0l-0.890625 7.859375l-1.703125 1.59375zm-0.3125 -6.265625l-0.5 -3.1875l9.53125 0l0 3.1875l-9.03125 0zm12.127472 13.75l10.140625 -16.9375l3.359375 0l-10.140625 16.9375l-3.359375 0zm10.609375 0.234375q-0.984375 0 -1.796875 -0.46875q-0.796875 -0.484375 -1.28125 -1.28125q-0.484375 -0.8125 -0.484375 -1.796875q0 -1.0 0.484375 -1.78125q0.484375 -0.78125 1.265625 -1.265625q0.796875 -0.484375 1.78125 -0.484375q1.03125 0 1.828125 0.484375q0.8125 0.484375 1.28125 1.265625q0.484375 0.78125 0.484375 1.78125q0 0.984375 -0.484375 1.796875q-0.46875 0.8125 -1.28125 1.28125q-0.796875 0.46875 -1.796875 0.46875zm0 -2.484375q0.453125 0 0.734375 -0.28125q0.296875 -0.296875 0.296875 -0.78125q0 -0.4375 -0.296875 -0.734375q-0.28125 -0.296875 -0.734375 -0.296875q-0.4375 0 -0.734375 0.296875q-0.28125 0.296875 -0.28125 0.734375q0 0.484375 0.28125 0.78125q0.296875 0.28125 0.734375 0.28125zm-7.734375 -7.875q-0.984375 0 -1.796875 -0.46875q-0.796875 -0.46875 -1.28125 -1.265625q-0.46875 -0.8125 -0.46875 -1.828125q0 -0.96875 0.46875 -1.765625q0.484375 -0.796875 1.28125 -1.265625q0.796875 -0.46875 1.765625 -0.46875q1.046875 0 1.84375 0.46875q0.796875 0.46875 1.28125 1.265625q0.484375 0.796875 0.484375 1.765625q0 1.015625 -0.484375 1.828125q-0.484375 0.796875 -1.28125 1.265625q-0.796875 0.46875 -1.8125 0.46875zm0 -2.5q0.453125 0 0.734375 -0.28125q0.296875 -0.296875 0.296875 -0.75q0 -0.453125 -0.296875 -0.734375q-0.28125 -0.296875 -0.734375 -0.296875q-0.4375 0 -0.71875 0.296875q-0.28125 0.28125 -0.28125 0.734375q0 0.453125 0.28125 0.75q0.28125 0.28125 0.71875 0.28125z" fill-rule="nonzero"/><path fill="#000000" fill-opacity="0.0" d="m208.78215 245.41733l77.574814 0l0 48.472443l-77.574814 0z" fill-rule="evenodd"/><path fill="#595959" d="m226.43974 275.34796l6.5 -6.71875q0.609375 -0.609375 0.96875 -1.109375q0.359375 -0.5 0.515625 -0.9375q0.171875 -0.453125 0.171875 -0.90625q0 -0.984375 -0.640625 -1.546875q-0.625 -0.5625 -1.65625 -0.5625q-1.015625 0 -1.828125 0.546875q-0.796875 0.53125 -1.53125 1.75l-2.53125 -2.1875q1.015625 -1.703125 2.578125 -2.5625q1.5625 -0.859375 3.578125 -0.859375q1.75 0 3.03125 0.65625q1.28125 0.640625 1.984375 1.84375q0.71875 1.1875 0.71875 2.796875q0 1.015625 -0.265625 1.875q-0.265625 0.84375 -0.859375 1.671875q-0.578125 0.828125 -1.5625 1.8125l-4.515625 4.484375l-4.65625 -0.046875zm0 2.109375l0 -2.109375l3.1875 -1.109375l9.0 0l0 3.21875l-12.1875 0zm19.05159 0.265625q-1.75 0 -3.28125 -0.609375q-1.515625 -0.609375 -2.53125 -1.765625l2.453125 -2.421875q0.453125 0.671875 1.328125 1.09375q0.875 0.40625 1.90625 0.40625q0.921875 0 1.59375 -0.3125q0.671875 -0.328125 1.046875 -0.9375q0.390625 -0.609375 0.390625 -1.4375q0 -0.828125 -0.390625 -1.421875q-0.375 -0.609375 -1.0625 -0.9375q-0.6875 -0.328125 -1.546875 -0.328125q-0.859375 0 -1.578125 0.234375q-0.71875 0.234375 -1.328125 0.6875l0.3125 -2.40625q0.546875 -0.421875 1.046875 -0.703125q0.515625 -0.28125 1.109375 -0.421875q0.609375 -0.140625 1.421875 -0.140625q1.875 0 3.15625 0.765625q1.28125 0.765625 1.9375 2.046875q0.671875 1.265625 0.671875 2.796875q0 1.6875 -0.828125 3.015625q-0.828125 1.3125 -2.328125 2.0625q-1.484375 0.734375 -3.5 0.734375zm-3.0 -7.75l-1.625 -1.515625l0.8125 -7.9375l3.40625 0l-0.890625 7.859375l-1.703125 1.59375zm-0.3125 -6.265625l-0.5 -3.1875l9.53125 0l0 3.1875l-9.03125 0zm12.127457 13.75l10.14061 -16.9375l3.359375 0l-10.140625 16.9375l-3.3593597 0zm10.60936 0.234375q-0.984375 0 -1.796875 -0.46875q-0.796875 -0.484375 -1.28125 -1.28125q-0.484375 -0.8125 -0.484375 -1.796875q0 -1.0 0.484375 -1.78125q0.484375 -0.78125 1.265625 -1.265625q0.796875 -0.484375 1.78125 -0.484375q1.03125 0 1.828125 0.484375q0.8125 0.484375 1.28125 1.265625q0.484375 0.78125 0.484375 1.78125q0 0.984375 -0.484375 1.796875q-0.46875 0.8125 -1.28125 1.28125q-0.796875 0.46875 -1.796875 0.46875zm0 -2.484375q0.453125 0 0.734375 -0.28125q0.296875 -0.296875 0.296875 -0.78125q0 -0.4375 -0.296875 -0.734375q-0.28125 -0.296875 -0.734375 -0.296875q-0.4375 0 -0.734375 0.296875q-0.28125 0.296875 -0.28125 0.734375q0 0.484375 0.28125 0.78125q0.296875 0.28125 0.734375 0.28125zm-7.734375 -7.875q-0.984375 0 -1.7968597 -0.46875q-0.796875 -0.46875 -1.28125 -1.265625q-0.46875 -0.8125 -0.46875 -1.828125q0 -0.96875 0.46875 -1.765625q0.484375 -0.796875 1.28125 -1.265625q0.79685974 -0.46875 1.7656097 -0.46875q1.046875 0 1.84375 0.46875q0.796875 0.46875 1.28125 1.265625q0.484375 0.796875 0.484375 1.765625q0 1.015625 -0.484375 1.828125q-0.484375 0.796875 -1.28125 1.265625q-0.796875 0.46875 -1.8125 0.46875zm0 -2.5q0.453125 0 0.734375 -0.28125q0.296875 -0.296875 0.296875 -0.75q0 -0.453125 -0.296875 -0.734375q-0.28125 -0.296875 -0.734375 -0.296875q-0.4375 0 -0.71875 0.296875q-0.28125 0.28125 -0.28125 0.734375q0 0.453125 0.28125 0.75q0.28125 0.28125 0.71875 0.28125z" fill-rule="nonzero"/><path fill="#000000" fill-opacity="0.0" d="m267.07086 411.50787l77.5748 0l0 48.472443l-77.5748 0z" fill-rule="evenodd"/><path fill="#f9a839" d="m284.72845 441.4385l6.5 -6.71875q0.609375 -0.609375 0.96875 -1.109375q0.359375 -0.5 0.515625 -0.9375q0.171875 -0.453125 0.171875 -0.90625q0 -0.984375 -0.640625 -1.546875q-0.625 -0.5625 -1.65625 -0.5625q-1.015625 0 -1.828125 0.546875q-0.796875 0.53125 -1.53125 1.75l-2.53125 -2.1875q1.015625 -1.703125 2.578125 -2.5625q1.5625 -0.859375 3.578125 -0.859375q1.75 0 3.03125 0.65625q1.28125 0.640625 1.984375 1.84375q0.71875 1.1875 0.71875 2.796875q0 1.015625 -0.265625 1.875q-0.265625 0.84375 -0.859375 1.671875q-0.578125 0.828125 -1.5625 1.8125l-4.515625 4.484375l-4.65625 -0.046875zm0 2.109375l0 -2.109375l3.1875 -1.109375l9.0 0l0 3.21875l-12.1875 0zm19.051575 0.265625q-1.75 0 -3.28125 -0.609375q-1.515625 -0.609375 -2.53125 -1.765625l2.453125 -2.421875q0.453125 0.671875 1.328125 1.09375q0.875 0.40625 1.90625 0.40625q0.921875 0 1.59375 -0.3125q0.671875 -0.328125 1.046875 -0.9375q0.390625 -0.609375 0.390625 -1.4375q0 -0.828125 -0.390625 -1.421875q-0.375 -0.609375 -1.0625 -0.9375q-0.6875 -0.328125 -1.546875 -0.328125q-0.859375 0 -1.578125 0.234375q-0.71875 0.234375 -1.328125 0.6875l0.3125 -2.40625q0.546875 -0.421875 1.046875 -0.703125q0.515625 -0.28125 1.109375 -0.421875q0.609375 -0.140625 1.421875 -0.140625q1.875 0 3.15625 0.765625q1.28125 0.765625 1.9375 2.046875q0.671875 1.265625 0.671875 2.796875q0 1.6875 -0.828125 3.015625q-0.828125 1.3125 -2.328125 2.0625q-1.484375 0.734375 -3.5 0.734375zm-3.0 -7.75l-1.625 -1.515625l0.8125 -7.9375l3.40625 0l-0.890625 7.859375l-1.703125 1.59375zm-0.3125 -6.265625l-0.5 -3.1875l9.53125 0l0 3.1875l-9.03125 0zm12.127472 13.75l10.140625 -16.9375l3.359375 0l-10.140625 16.9375l-3.359375 0zm10.609375 0.234375q-0.984375 0 -1.796875 -0.46875q-0.796875 -0.484375 -1.28125 -1.28125q-0.484375 -0.8125 -0.484375 -1.796875q0 -1.0 0.484375 -1.78125q0.484375 -0.78125 1.265625 -1.265625q0.796875 -0.484375 1.78125 -0.484375q1.03125 0 1.828125 0.484375q0.8125 0.484375 1.28125 1.265625q0.484375 0.78125 0.484375 1.78125q0 0.984375 -0.484375 1.796875q-0.46875 0.8125 -1.28125 1.28125q-0.796875 0.46875 -1.796875 0.46875zm0 -2.484375q0.453125 0 0.734375 -0.28125q0.296875 -0.296875 0.296875 -0.78125q0 -0.4375 -0.296875 -0.734375q-0.28125 -0.296875 -0.734375 -0.296875q-0.4375 0 -0.734375 0.296875q-0.28125 0.296875 -0.28125 0.734375q0 0.484375 0.28125 0.78125q0.296875 0.28125 0.734375 0.28125zm-7.734375 -7.875q-0.984375 0 -1.796875 -0.46875q-0.796875 -0.46875 -1.28125 -1.265625q-0.46875 -0.8125 -0.46875 -1.828125q0 -0.96875 0.46875 -1.765625q0.484375 -0.796875 1.28125 -1.265625q0.796875 -0.46875 1.765625 -0.46875q1.046875 0 1.84375 0.46875q0.796875 0.46875 1.28125 1.265625q0.484375 0.796875 0.484375 1.765625q0 1.015625 -0.484375 1.828125q-0.484375 0.796875 -1.28125 1.265625q-0.796875 0.46875 -1.8125 0.46875zm0 -2.5q0.453125 0 0.734375 -0.28125q0.296875 -0.296875 0.296875 -0.75q0 -0.453125 -0.296875 -0.734375q-0.28125 -0.296875 -0.734375 -0.296875q-0.4375 0 -0.71875 0.296875q-0.28125 0.28125 -0.28125 0.734375q0 0.453125 0.28125 0.75q0.28125 0.28125 0.71875 0.28125z" fill-rule="nonzero"/><path fill="#000000" fill-opacity="0.0" d="m306.16797 163.96326l77.5748 0l0 48.472443l-77.5748 0z" fill-rule="evenodd"/><path fill="#f9a839" d="m323.82556 193.89388l6.5 -6.71875q0.609375 -0.609375 0.96875 -1.109375q0.359375 -0.5 0.515625 -0.9375q0.171875 -0.453125 0.171875 -0.90625q0 -0.984375 -0.640625 -1.546875q-0.625 -0.5625 -1.65625 -0.5625q-1.015625 0 -1.828125 0.546875q-0.796875 0.53125 -1.53125 1.75l-2.53125 -2.1875q1.015625 -1.703125 2.578125 -2.5625q1.5625 -0.859375 3.578125 -0.859375q1.75 0 3.03125 0.65625q1.28125 0.640625 1.984375 1.84375q0.71875 1.1875 0.71875 2.796875q0 1.015625 -0.265625 1.875q-0.265625 0.84375 -0.859375 1.671875q-0.578125 0.828125 -1.5625 1.8125l-4.515625 4.484375l-4.65625 -0.046875zm0 2.109375l0 -2.109375l3.1875 -1.109375l9.0 0l0 3.21875l-12.1875 0zm19.051605 0.265625q-1.75 0 -3.28125 -0.609375q-1.515625 -0.609375 -2.53125 -1.765625l2.453125 -2.421875q0.453125 0.671875 1.328125 1.09375q0.875 0.40625 1.90625 0.40625q0.921875 0 1.59375 -0.3125q0.671875 -0.328125 1.046875 -0.9375q0.390625 -0.609375 0.390625 -1.4375q0 -0.828125 -0.390625 -1.421875q-0.375 -0.609375 -1.0625 -0.9375q-0.6875 -0.328125 -1.546875 -0.328125q-0.859375 0 -1.578125 0.234375q-0.71875 0.234375 -1.328125 0.6875l0.3125 -2.40625q0.546875 -0.421875 1.046875 -0.703125q0.515625 -0.28125 1.109375 -0.421875q0.609375 -0.140625 1.421875 -0.140625q1.875 0 3.15625 0.765625q1.28125 0.765625 1.9375 2.046875q0.671875 1.265625 0.671875 2.796875q0 1.6875 -0.828125 3.015625q-0.828125 1.3125 -2.328125 2.0625q-1.484375 0.734375 -3.5 0.734375zm-3.0 -7.75l-1.625 -1.515625l0.8125 -7.9375l3.40625 0l-0.890625 7.859375l-1.703125 1.59375zm-0.3125 -6.265625l-0.5 -3.1875l9.53125 0l0 3.1875l-9.03125 0zm12.127441 13.75l10.140625 -16.9375l3.359375 0l-10.140625 16.9375l-3.359375 0zm10.609375 0.234375q-0.984375 0 -1.796875 -0.46875q-0.796875 -0.484375 -1.28125 -1.28125q-0.484375 -0.8125 -0.484375 -1.796875q0 -1.0 0.484375 -1.78125q0.484375 -0.78125 1.265625 -1.265625q0.796875 -0.484375 1.78125 -0.484375q1.03125 0 1.828125 0.484375q0.8125 0.484375 1.28125 1.265625q0.484375 0.78125 0.484375 1.78125q0 0.984375 -0.484375 1.796875q-0.46875 0.8125 -1.28125 1.28125q-0.796875 0.46875 -1.796875 0.46875zm0 -2.484375q0.453125 0 0.734375 -0.28125q0.296875 -0.296875 0.296875 -0.78125q0 -0.4375 -0.296875 -0.734375q-0.28125 -0.296875 -0.734375 -0.296875q-0.4375 0 -0.734375 0.296875q-0.28125 0.296875 -0.28125 0.734375q0 0.484375 0.28125 0.78125q0.296875 0.28125 0.734375 0.28125zm-7.734375 -7.875q-0.984375 0 -1.796875 -0.46875q-0.796875 -0.46875 -1.28125 -1.265625q-0.46875 -0.8125 -0.46875 -1.828125q0 -0.96875 0.46875 -1.765625q0.484375 -0.796875 1.28125 -1.265625q0.796875 -0.46875 1.765625 -0.46875q1.046875 0 1.84375 0.46875q0.796875 0.46875 1.28125 1.265625q0.484375 0.796875 0.484375 1.765625q0 1.015625 -0.484375 1.828125q-0.484375 0.796875 -1.28125 1.265625q-0.796875 0.46875 -1.8125 0.46875zm0 -2.5q0.453125 0 0.734375 -0.28125q0.296875 -0.296875 0.296875 -0.75q0 -0.453125 -0.296875 -0.734375q-0.28125 -0.296875 -0.734375 -0.296875q-0.4375 0 -0.71875 0.296875q-0.28125 0.28125 -0.28125 0.734375q0 0.453125 0.28125 0.75q0.28125 0.28125 0.71875 0.28125z" fill-rule="nonzero"/><path fill="#000000" fill-opacity="0.0" d="m306.16797 273.17847l77.5748 0l0 48.472443l-77.5748 0z" fill-rule="evenodd"/><path fill="#f9a839" d="m323.82556 303.1091l6.5 -6.71875q0.609375 -0.609375 0.96875 -1.109375q0.359375 -0.5 0.515625 -0.9375q0.171875 -0.453125 0.171875 -0.90625q0 -0.984375 -0.640625 -1.546875q-0.625 -0.5625 -1.65625 -0.5625q-1.015625 0 -1.828125 0.546875q-0.796875 0.53125 -1.53125 1.75l-2.53125 -2.1875q1.015625 -1.703125 2.578125 -2.5625q1.5625 -0.859375 3.578125 -0.859375q1.75 0 3.03125 0.65625q1.28125 0.640625 1.984375 1.84375q0.71875 1.1875 0.71875 2.796875q0 1.015625 -0.265625 1.875q-0.265625 0.84375 -0.859375 1.671875q-0.578125 0.828125 -1.5625 1.8125l-4.515625 4.484375l-4.65625 -0.046875zm0 2.109375l0 -2.109375l3.1875 -1.109375l9.0 0l0 3.21875l-12.1875 0zm19.051605 0.265625q-1.75 0 -3.28125 -0.609375q-1.515625 -0.609375 -2.53125 -1.765625l2.453125 -2.421875q0.453125 0.671875 1.328125 1.09375q0.875 0.40625 1.90625 0.40625q0.921875 0 1.59375 -0.3125q0.671875 -0.328125 1.046875 -0.9375q0.390625 -0.609375 0.390625 -1.4375q0 -0.828125 -0.390625 -1.421875q-0.375 -0.609375 -1.0625 -0.9375q-0.6875 -0.328125 -1.546875 -0.328125q-0.859375 0 -1.578125 0.234375q-0.71875 0.234375 -1.328125 0.6875l0.3125 -2.40625q0.546875 -0.421875 1.046875 -0.703125q0.515625 -0.28125 1.109375 -0.421875q0.609375 -0.140625 1.421875 -0.140625q1.875 0 3.15625 0.765625q1.28125 0.765625 1.9375 2.046875q0.671875 1.265625 0.671875 2.796875q0 1.6875 -0.828125 3.015625q-0.828125 1.3125 -2.328125 2.0625q-1.484375 0.734375 -3.5 0.734375zm-3.0 -7.75l-1.625 -1.515625l0.8125 -7.9375l3.40625 0l-0.890625 7.859375l-1.703125 1.59375zm-0.3125 -6.265625l-0.5 -3.1875l9.53125 0l0 3.1875l-9.03125 0zm12.127441 13.75l10.140625 -16.9375l3.359375 0l-10.140625 16.9375l-3.359375 0zm10.609375 0.234375q-0.984375 0 -1.796875 -0.46875q-0.796875 -0.484375 -1.28125 -1.28125q-0.484375 -0.8125 -0.484375 -1.796875q0 -1.0 0.484375 -1.78125q0.484375 -0.78125 1.265625 -1.265625q0.796875 -0.484375 1.78125 -0.484375q1.03125 0 1.828125 0.484375q0.8125 0.484375 1.28125 1.265625q0.484375 0.78125 0.484375 1.78125q0 0.984375 -0.484375 1.796875q-0.46875 0.8125 -1.28125 1.28125q-0.796875 0.46875 -1.796875 0.46875zm0 -2.484375q0.453125 0 0.734375 -0.28125q0.296875 -0.296875 0.296875 -0.78125q0 -0.4375 -0.296875 -0.734375q-0.28125 -0.296875 -0.734375 -0.296875q-0.4375 0 -0.734375 0.296875q-0.28125 0.296875 -0.28125 0.734375q0 0.484375 0.28125 0.78125q0.296875 0.28125 0.734375 0.28125zm-7.734375 -7.875q-0.984375 0 -1.796875 -0.46875q-0.796875 -0.46875 -1.28125 -1.265625q-0.46875 -0.8125 -0.46875 -1.828125q0 -0.96875 0.46875 -1.765625q0.484375 -0.796875 1.28125 -1.265625q0.796875 -0.46875 1.765625 -0.46875q1.046875 0 1.84375 0.46875q0.796875 0.46875 1.28125 1.265625q0.484375 0.796875 0.484375 1.765625q0 1.015625 -0.484375 1.828125q-0.484375 0.796875 -1.28125 1.265625q-0.796875 0.46875 -1.8125 0.46875zm0 -2.5q0.453125 0 0.734375 -0.28125q0.296875 -0.296875 0.296875 -0.75q0 -0.453125 -0.296875 -0.734375q-0.28125 -0.296875 -0.734375 -0.296875q-0.4375 0 -0.71875 0.296875q-0.28125 0.28125 -0.28125 0.734375q0 0.453125 0.28125 0.75q0.28125 0.28125 0.71875 0.28125z" fill-rule="nonzero"/><path fill="#000000" fill-opacity="0.0" d="m236.59317 458.29922l77.5748 0l0 48.472443l-77.5748 0z" fill-rule="evenodd"/><path fill="#f9a839" d="m254.25076 488.22983l6.5 -6.71875q0.609375 -0.609375 0.96875 -1.109375q0.359375 -0.5 0.515625 -0.9375q0.171875 -0.453125 0.171875 -0.90625q0 -0.984375 -0.640625 -1.546875q-0.625 -0.5625 -1.65625 -0.5625q-1.015625 0 -1.828125 0.546875q-0.796875 0.53125 -1.53125 1.75l-2.53125 -2.1875q1.015625 -1.703125 2.578125 -2.5625q1.5625 -0.859375 3.578125 -0.859375q1.75 0 3.03125 0.65625q1.28125 0.640625 1.984375 1.84375q0.71875 1.1875 0.71875 2.796875q0 1.015625 -0.265625 1.875q-0.265625 0.84375 -0.859375 1.671875q-0.578125 0.828125 -1.5625 1.8125l-4.515625 4.484375l-4.65625 -0.046875zm0 2.109375l0 -2.109375l3.1875 -1.109375l9.0 0l0 3.21875l-12.1875 0zm19.051575 0.265625q-1.75 0 -3.28125 -0.609375q-1.515625 -0.609375 -2.53125 -1.765625l2.453125 -2.421875q0.453125 0.671875 1.328125 1.09375q0.875 0.40625 1.90625 0.40625q0.921875 0 1.59375 -0.3125q0.671875 -0.328125 1.046875 -0.9375q0.390625 -0.609375 0.390625 -1.4375q0 -0.828125 -0.390625 -1.421875q-0.375 -0.609375 -1.0625 -0.9375q-0.6875 -0.328125 -1.546875 -0.328125q-0.859375 0 -1.578125 0.234375q-0.71875 0.234375 -1.328125 0.6875l0.3125 -2.40625q0.546875 -0.421875 1.046875 -0.703125q0.515625 -0.28125 1.109375 -0.421875q0.609375 -0.140625 1.421875 -0.140625q1.875 0 3.15625 0.765625q1.28125 0.765625 1.9375 2.046875q0.671875 1.265625 0.671875 2.796875q0 1.6875 -0.828125 3.015625q-0.828125 1.3125 -2.328125 2.0625q-1.484375 0.734375 -3.5 0.734375zm-3.0 -7.75l-1.625 -1.515625l0.8125 -7.9375l3.40625 0l-0.890625 7.859375l-1.703125 1.59375zm-0.3125 -6.265625l-0.5 -3.1875l9.53125 0l0 3.1875l-9.03125 0zm12.127472 13.75l10.140625 -16.9375l3.359375 0l-10.140625 16.9375l-3.359375 0zm10.609375 0.234375q-0.984375 0 -1.796875 -0.46875q-0.796875 -0.484375 -1.28125 -1.28125q-0.484375 -0.8125 -0.484375 -1.796875q0 -1.0 0.484375 -1.78125q0.484375 -0.78125 1.265625 -1.265625q0.796875 -0.484375 1.78125 -0.484375q1.03125 0 1.828125 0.484375q0.8125 0.484375 1.28125 1.265625q0.484375 0.78125 0.484375 1.78125q0 0.984375 -0.484375 1.796875q-0.46875 0.8125 -1.28125 1.28125q-0.796875 0.46875 -1.796875 0.46875zm0 -2.484375q0.453125 0 0.734375 -0.28125q0.296875 -0.296875 0.296875 -0.78125q0 -0.4375 -0.296875 -0.734375q-0.28125 -0.296875 -0.734375 -0.296875q-0.4375 0 -0.734375 0.296875q-0.28125 0.296875 -0.28125 0.734375q0 0.484375 0.28125 0.78125q0.296875 0.28125 0.734375 0.28125zm-7.734375 -7.875q-0.984375 0 -1.796875 -0.46875q-0.796875 -0.46875 -1.28125 -1.265625q-0.46875 -0.8125 -0.46875 -1.828125q0 -0.96875 0.46875 -1.765625q0.484375 -0.796875 1.28125 -1.265625q0.796875 -0.46875 1.765625 -0.46875q1.046875 0 1.84375 0.46875q0.796875 0.46875 1.28125 1.265625q0.484375 0.796875 0.484375 1.765625q0 1.015625 -0.484375 1.828125q-0.484375 0.796875 -1.28125 1.265625q-0.796875 0.46875 -1.8125 0.46875zm0 -2.5q0.453125 0 0.734375 -0.28125q0.296875 -0.296875 0.296875 -0.75q0 -0.453125 -0.296875 -0.734375q-0.28125 -0.296875 -0.734375 -0.296875q-0.4375 0 -0.71875 0.296875q-0.28125 0.28125 -0.28125 0.734375q0 0.453125 0.28125 0.75q0.28125 0.28125 0.71875 0.28125z" fill-rule="nonzero"/><path fill="#000000" fill-opacity="0.0" d="m565.66406 107.490814l77.57477 0l0 48.472443l-77.57477 0z" fill-rule="evenodd"/><path fill="#4285f4" d="m587.6133 139.79643q-1.75 0 -3.28125 -0.609375q-1.515625 -0.609375 -2.53125 -1.765625l2.453125 -2.421875q0.453125 0.671875 1.328125 1.09375q0.875 0.40625 1.90625 0.40625q0.921875 0 1.59375 -0.3125q0.671875 -0.328125 1.046875 -0.9375q0.390625 -0.609375 0.390625 -1.4375q0 -0.828125 -0.390625 -1.421875q-0.375 -0.609375 -1.0625 -0.9375q-0.6875 -0.328125 -1.546875 -0.328125q-0.859375 0 -1.578125 0.234375q-0.71875 0.234375 -1.328125 0.6875l0.3125 -2.40625q0.546875 -0.421875 1.046875 -0.703125q0.515625 -0.28125 1.109375 -0.421875q0.609375 -0.140625 1.421875 -0.140625q1.875 0 3.15625 0.765625q1.28125 0.765625 1.9375 2.046875q0.671875 1.265625 0.671875 2.796875q0 1.6875 -0.828125 3.015625q-0.828125 1.3125 -2.328125 2.0625q-1.484375 0.734375 -3.5 0.734375zm-3.0 -7.75l-1.625 -1.515625l0.8125 -7.9374924l3.40625 0l-0.890625 7.8593674l-1.703125 1.59375zm-0.3125 -6.2656174l-0.5 -3.1875l9.53125 0l0 3.1875l-9.03125 0zm18.674316 14.015617q-2.046875 0 -3.703125 -1.09375q-1.65625 -1.109375 -2.609375 -3.09375q-0.9375 -1.984375 -0.9375 -4.578125q0 -2.609375 0.9375 -4.5624924q0.9375 -1.96875 2.5625 -3.046875q1.640625 -1.09375 3.703125 -1.09375q2.09375 0 3.71875 1.09375q1.625 1.078125 2.578125 3.046875q0.953125 1.9687424 0.953125 4.5937424q0 2.609375 -0.953125 4.578125q-0.953125 1.96875 -2.578125 3.0625q-1.609375 1.09375 -3.671875 1.09375zm-0.03125 -3.34375q1.0625 0 1.828125 -0.609375q0.765625 -0.609375 1.1875 -1.8125q0.421875 -1.21875 0.421875 -2.96875q0 -1.78125 -0.421875 -2.96875q-0.421875 -1.2031174 -1.1875 -1.8124924q-0.765625 -0.625 -1.84375 -0.625q-1.03125 0 -1.8125 0.609375q-0.78125 0.59375 -1.1875 1.7968674q-0.40625 1.203125 -0.40625 2.96875q0 1.78125 0.40625 2.984375q0.40625 1.203125 1.1875 1.828125q0.78125 0.609375 1.828125 0.609375zm9.468323 3.078125l10.140625 -16.937492l3.359375 0l-10.140625 16.937492l-3.359375 0zm10.609375 0.234375q-0.984375 0 -1.796875 -0.46875q-0.796875 -0.484375 -1.28125 -1.28125q-0.484375 -0.8125 -0.484375 -1.796875q0 -1.0 0.484375 -1.78125q0.484375 -0.78125 1.265625 -1.265625q0.796875 -0.484375 1.78125 -0.484375q1.03125 0 1.828125 0.484375q0.8125 0.484375 1.28125 1.265625q0.484375 0.78125 0.484375 1.78125q0 0.984375 -0.484375 1.796875q-0.46875 0.8125 -1.28125 1.28125q-0.796875 0.46875 -1.796875 0.46875zm0 -2.484375q0.453125 0 0.734375 -0.28125q0.296875 -0.296875 0.296875 -0.78125q0 -0.4375 -0.296875 -0.734375q-0.28125 -0.296875 -0.734375 -0.296875q-0.4375 0 -0.734375 0.296875q-0.28125 0.296875 -0.28125 0.734375q0 0.484375 0.28125 0.78125q0.296875 0.28125 0.734375 0.28125zm-7.734375 -7.875q-0.984375 0 -1.796875 -0.46875q-0.796875 -0.46875 -1.28125 -1.2656174q-0.46875 -0.8125 -0.46875 -1.828125q0 -0.96875 0.46875 -1.765625q0.484375 -0.796875 1.28125 -1.265625q0.796875 -0.46875 1.765625 -0.46875q1.046875 0 1.84375 0.46875q0.796875 0.46875 1.28125 1.265625q0.484375 0.796875 0.484375 1.765625q0 1.015625 -0.484375 1.828125q-0.484375 0.7968674 -1.28125 1.2656174q-0.796875 0.46875 -1.8125 0.46875zm0 -2.4999924q0.453125 0 0.734375 -0.28125q0.296875 -0.296875 0.296875 -0.75q0 -0.453125 -0.296875 -0.734375q-0.28125 -0.296875 -0.734375 -0.296875q-0.4375 0 -0.71875 0.296875q-0.28125 0.28125 -0.28125 0.734375q0 0.453125 0.28125 0.75q0.28125 0.28125 0.71875 0.28125z" fill-rule="nonzero"/><path fill="#000000" fill-opacity="0.0" d="m556.5932 162.29921l77.57477 0l0 48.472443l-77.57477 0z" fill-rule="evenodd"/><path fill="#4285f4" d="m578.5424 194.60484q-1.75 0 -3.28125 -0.609375q-1.515625 -0.609375 -2.53125 -1.765625l2.453125 -2.421875q0.453125 0.671875 1.328125 1.09375q0.875 0.40625 1.90625 0.40625q0.921875 0 1.59375 -0.3125q0.671875 -0.328125 1.046875 -0.9375q0.390625 -0.609375 0.390625 -1.4375q0 -0.828125 -0.390625 -1.421875q-0.375 -0.609375 -1.0625 -0.9375q-0.6875 -0.328125 -1.546875 -0.328125q-0.859375 0 -1.578125 0.234375q-0.71875 0.234375 -1.328125 0.6875l0.3125 -2.40625q0.546875 -0.421875 1.046875 -0.703125q0.515625 -0.28125 1.109375 -0.421875q0.609375 -0.140625 1.421875 -0.140625q1.875 0 3.15625 0.765625q1.28125 0.765625 1.9375 2.046875q0.671875 1.265625 0.671875 2.796875q0 1.6875 -0.828125 3.015625q-0.828125 1.3125 -2.328125 2.0625q-1.484375 0.734375 -3.5 0.734375zm-3.0 -7.75l-1.625 -1.515625l0.8125 -7.9375l3.40625 0l-0.890625 7.859375l-1.703125 1.59375zm-0.3125 -6.265625l-0.5 -3.1875l9.53125 0l0 3.1875l-9.03125 0zm18.674316 14.015625q-2.046875 0 -3.703125 -1.09375q-1.65625 -1.109375 -2.609375 -3.09375q-0.9375 -1.984375 -0.9375 -4.578125q0 -2.609375 0.9375 -4.5625q0.9375 -1.96875 2.5625 -3.046875q1.640625 -1.09375 3.703125 -1.09375q2.09375 0 3.71875 1.09375q1.625 1.078125 2.578125 3.046875q0.953125 1.96875 0.953125 4.59375q0 2.609375 -0.953125 4.578125q-0.953125 1.96875 -2.578125 3.0625q-1.609375 1.09375 -3.671875 1.09375zm-0.03125 -3.34375q1.0625 0 1.828125 -0.609375q0.765625 -0.609375 1.1875 -1.8125q0.421875 -1.21875 0.421875 -2.96875q0 -1.78125 -0.421875 -2.96875q-0.421875 -1.203125 -1.1875 -1.8125q-0.765625 -0.625 -1.84375 -0.625q-1.03125 0 -1.8125 0.609375q-0.78125 0.59375 -1.1875 1.796875q-0.40625 1.203125 -0.40625 2.96875q0 1.78125 0.40625 2.984375q0.40625 1.203125 1.1875 1.828125q0.78125 0.609375 1.828125 0.609375zm9.468323 3.078125l10.140625 -16.9375l3.359375 0l-10.140625 16.9375l-3.359375 0zm10.609375 0.234375q-0.984375 0 -1.796875 -0.46875q-0.796875 -0.484375 -1.28125 -1.28125q-0.484375 -0.8125 -0.484375 -1.796875q0 -1.0 0.484375 -1.78125q0.484375 -0.78125 1.265625 -1.265625q0.796875 -0.484375 1.78125 -0.484375q1.03125 0 1.828125 0.484375q0.8125 0.484375 1.28125 1.265625q0.484375 0.78125 0.484375 1.78125q0 0.984375 -0.484375 1.796875q-0.46875 0.8125 -1.28125 1.28125q-0.796875 0.46875 -1.796875 0.46875zm0 -2.484375q0.453125 0 0.734375 -0.28125q0.296875 -0.296875 0.296875 -0.78125q0 -0.4375 -0.296875 -0.734375q-0.28125 -0.296875 -0.734375 -0.296875q-0.4375 0 -0.734375 0.296875q-0.28125 0.296875 -0.28125 0.734375q0 0.484375 0.28125 0.78125q0.296875 0.28125 0.734375 0.28125zm-7.734375 -7.875q-0.984375 0 -1.796875 -0.46875q-0.796875 -0.46875 -1.28125 -1.265625q-0.46875 -0.8125 -0.46875 -1.828125q0 -0.96875 0.46875 -1.765625q0.484375 -0.796875 1.28125 -1.265625q0.796875 -0.46875 1.765625 -0.46875q1.046875 0 1.84375 0.46875q0.796875 0.46875 1.28125 1.265625q0.484375 0.796875 0.484375 1.765625q0 1.015625 -0.484375 1.828125q-0.484375 0.796875 -1.28125 1.265625q-0.796875 0.46875 -1.8125 0.46875zm0 -2.5q0.453125 0 0.734375 -0.28125q0.296875 -0.296875 0.296875 -0.75q0 -0.453125 -0.296875 -0.734375q-0.28125 -0.296875 -0.734375 -0.296875q-0.4375 0 -0.71875 0.296875q-0.28125 0.28125 -0.28125 0.734375q0 0.453125 0.28125 0.75q0.28125 0.28125 0.71875 0.28125z" fill-rule="nonzero"/><path fill="#000000" fill-opacity="0.0" d="m517.66406 195.49081l77.57477 0l0 48.472443l-77.57477 0z" fill-rule="evenodd"/><path fill="#ffab40" d="m539.6133 227.79643q-1.75 0 -3.28125 -0.609375q-1.515625 -0.609375 -2.53125 -1.765625l2.453125 -2.421875q0.453125 0.671875 1.328125 1.09375q0.875 0.40625 1.90625 0.40625q0.921875 0 1.59375 -0.3125q0.671875 -0.328125 1.046875 -0.9375q0.390625 -0.609375 0.390625 -1.4375q0 -0.828125 -0.390625 -1.421875q-0.375 -0.609375 -1.0625 -0.9375q-0.6875 -0.328125 -1.546875 -0.328125q-0.859375 0 -1.578125 0.234375q-0.71875 0.234375 -1.328125 0.6875l0.3125 -2.40625q0.546875 -0.421875 1.046875 -0.703125q0.515625 -0.28125 1.109375 -0.421875q0.609375 -0.140625 1.421875 -0.140625q1.875 0 3.15625 0.765625q1.28125 0.765625 1.9375 2.046875q0.671875 1.265625 0.671875 2.796875q0 1.6875 -0.828125 3.015625q-0.828125 1.3125 -2.328125 2.0625q-1.484375 0.734375 -3.5 0.734375zm-3.0 -7.75l-1.625 -1.515625l0.8125 -7.9375l3.40625 0l-0.890625 7.859375l-1.703125 1.59375zm-0.3125 -6.265625l-0.5 -3.1875l9.53125 0l0 3.1875l-9.03125 0zm18.674316 14.015625q-2.046875 0 -3.703125 -1.09375q-1.65625 -1.109375 -2.609375 -3.09375q-0.9375 -1.984375 -0.9375 -4.578125q0 -2.609375 0.9375 -4.5625q0.9375 -1.96875 2.5625 -3.046875q1.640625 -1.09375 3.703125 -1.09375q2.09375 0 3.71875 1.09375q1.625 1.078125 2.578125 3.046875q0.953125 1.96875 0.953125 4.59375q0 2.609375 -0.953125 4.578125q-0.953125 1.96875 -2.578125 3.0625q-1.609375 1.09375 -3.671875 1.09375zm-0.03125 -3.34375q1.0625 0 1.828125 -0.609375q0.765625 -0.609375 1.1875 -1.8125q0.421875 -1.21875 0.421875 -2.96875q0 -1.78125 -0.421875 -2.96875q-0.421875 -1.203125 -1.1875 -1.8125q-0.765625 -0.625 -1.84375 -0.625q-1.03125 0 -1.8125 0.609375q-0.78125 0.59375 -1.1875 1.796875q-0.40625 1.203125 -0.40625 2.96875q0 1.78125 0.40625 2.984375q0.40625 1.203125 1.1875 1.828125q0.78125 0.609375 1.828125 0.609375zm9.468323 3.078125l10.140625 -16.9375l3.359375 0l-10.140625 16.9375l-3.359375 0zm10.609375 0.234375q-0.984375 0 -1.796875 -0.46875q-0.796875 -0.484375 -1.28125 -1.28125q-0.484375 -0.8125 -0.484375 -1.796875q0 -1.0 0.484375 -1.78125q0.484375 -0.78125 1.265625 -1.265625q0.796875 -0.484375 1.78125 -0.484375q1.03125 0 1.828125 0.484375q0.8125 0.484375 1.28125 1.265625q0.484375 0.78125 0.484375 1.78125q0 0.984375 -0.484375 1.796875q-0.46875 0.8125 -1.28125 1.28125q-0.796875 0.46875 -1.796875 0.46875zm0 -2.484375q0.453125 0 0.734375 -0.28125q0.296875 -0.296875 0.296875 -0.78125q0 -0.4375 -0.296875 -0.734375q-0.28125 -0.296875 -0.734375 -0.296875q-0.4375 0 -0.734375 0.296875q-0.28125 0.296875 -0.28125 0.734375q0 0.484375 0.28125 0.78125q0.296875 0.28125 0.734375 0.28125zm-7.734375 -7.875q-0.984375 0 -1.796875 -0.46875q-0.796875 -0.46875 -1.28125 -1.265625q-0.46875 -0.8125 -0.46875 -1.828125q0 -0.96875 0.46875 -1.765625q0.484375 -0.796875 1.28125 -1.265625q0.796875 -0.46875 1.765625 -0.46875q1.046875 0 1.84375 0.46875q0.796875 0.46875 1.28125 1.265625q0.484375 0.796875 0.484375 1.765625q0 1.015625 -0.484375 1.828125q-0.484375 0.796875 -1.28125 1.265625q-0.796875 0.46875 -1.8125 0.46875zm0 -2.5q0.453125 0 0.734375 -0.28125q0.296875 -0.296875 0.296875 -0.75q0 -0.453125 -0.296875 -0.734375q-0.28125 -0.296875 -0.734375 -0.296875q-0.4375 0 -0.71875 0.296875q-0.28125 0.28125 -0.28125 0.734375q0 0.453125 0.28125 0.75q0.28125 0.28125 0.71875 0.28125z" fill-rule="nonzero"/><path fill="#000000" fill-opacity="0.0" d="m501.66403 267.4908l77.5748 0l0 48.472443l-77.5748 0z" fill-rule="evenodd"/><path fill="#ffab40" d="m523.6133 299.79645q-1.75 0 -3.28125 -0.609375q-1.515625 -0.609375 -2.53125 -1.765625l2.453125 -2.421875q0.453125 0.671875 1.328125 1.09375q0.875 0.40625 1.90625 0.40625q0.921875 0 1.59375 -0.3125q0.671875 -0.328125 1.046875 -0.9375q0.390625 -0.609375 0.390625 -1.4375q0 -0.828125 -0.390625 -1.421875q-0.375 -0.609375 -1.0625 -0.9375q-0.6875 -0.328125 -1.546875 -0.328125q-0.859375 0 -1.578125 0.234375q-0.71875 0.234375 -1.328125 0.6875l0.3125 -2.40625q0.546875 -0.421875 1.046875 -0.703125q0.515625 -0.28125 1.109375 -0.421875q0.609375 -0.140625 1.421875 -0.140625q1.875 0 3.15625 0.765625q1.28125 0.765625 1.9375 2.046875q0.671875 1.265625 0.671875 2.796875q0 1.6875 -0.828125 3.015625q-0.828125 1.3125 -2.328125 2.0625q-1.484375 0.734375 -3.5 0.734375zm-3.0 -7.75l-1.625 -1.515625l0.8125 -7.9375l3.40625 0l-0.890625 7.859375l-1.703125 1.59375zm-0.3125 -6.265625l-0.5 -3.1875l9.53125 0l0 3.1875l-9.03125 0zm18.674316 14.015625q-2.046875 0 -3.703125 -1.09375q-1.65625 -1.109375 -2.609375 -3.09375q-0.9375 -1.984375 -0.9375 -4.578125q0 -2.609375 0.9375 -4.5625q0.9375 -1.96875 2.5625 -3.046875q1.640625 -1.09375 3.703125 -1.09375q2.09375 0 3.71875 1.09375q1.625 1.078125 2.578125 3.046875q0.953125 1.96875 0.953125 4.59375q0 2.609375 -0.953125 4.578125q-0.953125 1.96875 -2.578125 3.0625q-1.609375 1.09375 -3.671875 1.09375zm-0.03125 -3.34375q1.0625 0 1.828125 -0.609375q0.765625 -0.609375 1.1875 -1.8125q0.421875 -1.21875 0.421875 -2.96875q0 -1.78125 -0.421875 -2.96875q-0.421875 -1.203125 -1.1875 -1.8125q-0.765625 -0.625 -1.84375 -0.625q-1.03125 0 -1.8125 0.609375q-0.78125 0.59375 -1.1875 1.796875q-0.40625 1.203125 -0.40625 2.96875q0 1.78125 0.40625 2.984375q0.40625 1.203125 1.1875 1.828125q0.78125 0.609375 1.828125 0.609375zm9.468323 3.078125l10.140625 -16.9375l3.359375 0l-10.140625 16.9375l-3.359375 0zm10.609375 0.234375q-0.984375 0 -1.796875 -0.46875q-0.796875 -0.484375 -1.28125 -1.28125q-0.484375 -0.8125 -0.484375 -1.796875q0 -1.0 0.484375 -1.78125q0.484375 -0.78125 1.265625 -1.265625q0.796875 -0.484375 1.78125 -0.484375q1.03125 0 1.828125 0.484375q0.8125 0.484375 1.28125 1.265625q0.484375 0.78125 0.484375 1.78125q0 0.984375 -0.484375 1.796875q-0.46875 0.8125 -1.28125 1.28125q-0.796875 0.46875 -1.796875 0.46875zm0 -2.484375q0.453125 0 0.734375 -0.28125q0.296875 -0.296875 0.296875 -0.78125q0 -0.4375 -0.296875 -0.734375q-0.28125 -0.296875 -0.734375 -0.296875q-0.4375 0 -0.734375 0.296875q-0.28125 0.296875 -0.28125 0.734375q0 0.484375 0.28125 0.78125q0.296875 0.28125 0.734375 0.28125zm-7.734375 -7.875q-0.984375 0 -1.796875 -0.46875q-0.796875 -0.46875 -1.28125 -1.265625q-0.46875 -0.8125 -0.46875 -1.828125q0 -0.96875 0.46875 -1.765625q0.484375 -0.796875 1.28125 -1.265625q0.796875 -0.46875 1.765625 -0.46875q1.046875 0 1.84375 0.46875q0.796875 0.46875 1.28125 1.265625q0.484375 0.796875 0.484375 1.765625q0 1.015625 -0.484375 1.828125q-0.484375 0.796875 -1.28125 1.265625q-0.796875 0.46875 -1.8125 0.46875zm0 -2.5q0.453125 0 0.734375 -0.28125q0.296875 -0.296875 0.296875 -0.75q0 -0.453125 -0.296875 -0.734375q-0.28125 -0.296875 -0.734375 -0.296875q-0.4375 0 -0.71875 0.296875q-0.28125 0.28125 -0.28125 0.734375q0 0.453125 0.28125 0.75q0.28125 0.28125 0.71875 0.28125z" fill-rule="nonzero"/><path fill="#000000" fill-opacity="0.0" d="m501.66403 307.4908l77.5748 0l0 48.472443l-77.5748 0z" fill-rule="evenodd"/><path fill="#0097a7" d="m523.6133 339.79645q-1.75 0 -3.28125 -0.609375q-1.515625 -0.609375 -2.53125 -1.765625l2.453125 -2.421875q0.453125 0.671875 1.328125 1.09375q0.875 0.40625 1.90625 0.40625q0.921875 0 1.59375 -0.3125q0.671875 -0.328125 1.046875 -0.9375q0.390625 -0.609375 0.390625 -1.4375q0 -0.828125 -0.390625 -1.421875q-0.375 -0.609375 -1.0625 -0.9375q-0.6875 -0.328125 -1.546875 -0.328125q-0.859375 0 -1.578125 0.234375q-0.71875 0.234375 -1.328125 0.6875l0.3125 -2.40625q0.546875 -0.421875 1.046875 -0.703125q0.515625 -0.28125 1.109375 -0.421875q0.609375 -0.140625 1.421875 -0.140625q1.875 0 3.15625 0.765625q1.28125 0.765625 1.9375 2.046875q0.671875 1.265625 0.671875 2.796875q0 1.6875 -0.828125 3.015625q-0.828125 1.3125 -2.328125 2.0625q-1.484375 0.734375 -3.5 0.734375zm-3.0 -7.75l-1.625 -1.515625l0.8125 -7.9375l3.40625 0l-0.890625 7.859375l-1.703125 1.59375zm-0.3125 -6.265625l-0.5 -3.1875l9.53125 0l0 3.1875l-9.03125 0zm18.674316 14.015625q-2.046875 0 -3.703125 -1.09375q-1.65625 -1.109375 -2.609375 -3.09375q-0.9375 -1.984375 -0.9375 -4.578125q0 -2.609375 0.9375 -4.5625q0.9375 -1.96875 2.5625 -3.046875q1.640625 -1.09375 3.703125 -1.09375q2.09375 0 3.71875 1.09375q1.625 1.078125 2.578125 3.046875q0.953125 1.96875 0.953125 4.59375q0 2.609375 -0.953125 4.578125q-0.953125 1.96875 -2.578125 3.0625q-1.609375 1.09375 -3.671875 1.09375zm-0.03125 -3.34375q1.0625 0 1.828125 -0.609375q0.765625 -0.609375 1.1875 -1.8125q0.421875 -1.21875 0.421875 -2.96875q0 -1.78125 -0.421875 -2.96875q-0.421875 -1.203125 -1.1875 -1.8125q-0.765625 -0.625 -1.84375 -0.625q-1.03125 0 -1.8125 0.609375q-0.78125 0.59375 -1.1875 1.796875q-0.40625 1.203125 -0.40625 2.96875q0 1.78125 0.40625 2.984375q0.40625 1.203125 1.1875 1.828125q0.78125 0.609375 1.828125 0.609375zm9.468323 3.078125l10.140625 -16.9375l3.359375 0l-10.140625 16.9375l-3.359375 0zm10.609375 0.234375q-0.984375 0 -1.796875 -0.46875q-0.796875 -0.484375 -1.28125 -1.28125q-0.484375 -0.8125 -0.484375 -1.796875q0 -1.0 0.484375 -1.78125q0.484375 -0.78125 1.265625 -1.265625q0.796875 -0.484375 1.78125 -0.484375q1.03125 0 1.828125 0.484375q0.8125 0.484375 1.28125 1.265625q0.484375 0.78125 0.484375 1.78125q0 0.984375 -0.484375 1.796875q-0.46875 0.8125 -1.28125 1.28125q-0.796875 0.46875 -1.796875 0.46875zm0 -2.484375q0.453125 0 0.734375 -0.28125q0.296875 -0.296875 0.296875 -0.78125q0 -0.4375 -0.296875 -0.734375q-0.28125 -0.296875 -0.734375 -0.296875q-0.4375 0 -0.734375 0.296875q-0.28125 0.296875 -0.28125 0.734375q0 0.484375 0.28125 0.78125q0.296875 0.28125 0.734375 0.28125zm-7.734375 -7.875q-0.984375 0 -1.796875 -0.46875q-0.796875 -0.46875 -1.28125 -1.265625q-0.46875 -0.8125 -0.46875 -1.828125q0 -0.96875 0.46875 -1.765625q0.484375 -0.796875 1.28125 -1.265625q0.796875 -0.46875 1.765625 -0.46875q1.046875 0 1.84375 0.46875q0.796875 0.46875 1.28125 1.265625q0.484375 0.796875 0.484375 1.765625q0 1.015625 -0.484375 1.828125q-0.484375 0.796875 -1.28125 1.265625q-0.796875 0.46875 -1.8125 0.46875zm0 -2.5q0.453125 0 0.734375 -0.28125q0.296875 -0.296875 0.296875 -0.75q0 -0.453125 -0.296875 -0.734375q-0.28125 -0.296875 -0.734375 -0.296875q-0.4375 0 -0.71875 0.296875q-0.28125 0.28125 -0.28125 0.734375q0 0.453125 0.28125 0.75q0.28125 0.28125 0.71875 0.28125z" fill-rule="nonzero"/><path fill="#000000" fill-opacity="0.0" d="m509.66403 379.4908l77.5748 0l0 48.472443l-77.5748 0z" fill-rule="evenodd"/><path fill="#0097a7" d="m531.6133 411.79645q-1.75 0 -3.28125 -0.609375q-1.515625 -0.609375 -2.53125 -1.765625l2.453125 -2.421875q0.453125 0.671875 1.328125 1.09375q0.875 0.40625 1.90625 0.40625q0.921875 0 1.59375 -0.3125q0.671875 -0.328125 1.046875 -0.9375q0.390625 -0.609375 0.390625 -1.4375q0 -0.828125 -0.390625 -1.421875q-0.375 -0.609375 -1.0625 -0.9375q-0.6875 -0.328125 -1.546875 -0.328125q-0.859375 0 -1.578125 0.234375q-0.71875 0.234375 -1.328125 0.6875l0.3125 -2.40625q0.546875 -0.421875 1.046875 -0.703125q0.515625 -0.28125 1.109375 -0.421875q0.609375 -0.140625 1.421875 -0.140625q1.875 0 3.15625 0.765625q1.28125 0.765625 1.9375 2.046875q0.671875 1.265625 0.671875 2.796875q0 1.6875 -0.828125 3.015625q-0.828125 1.3125 -2.328125 2.0625q-1.484375 0.734375 -3.5 0.734375zm-3.0 -7.75l-1.625 -1.515625l0.8125 -7.9375l3.40625 0l-0.890625 7.859375l-1.703125 1.59375zm-0.3125 -6.265625l-0.5 -3.1875l9.53125 0l0 3.1875l-9.03125 0zm18.674316 14.015625q-2.046875 0 -3.703125 -1.09375q-1.65625 -1.109375 -2.609375 -3.09375q-0.9375 -1.984375 -0.9375 -4.578125q0 -2.609375 0.9375 -4.5625q0.9375 -1.96875 2.5625 -3.046875q1.640625 -1.09375 3.703125 -1.09375q2.09375 0 3.71875 1.09375q1.625 1.078125 2.578125 3.046875q0.953125 1.96875 0.953125 4.59375q0 2.609375 -0.953125 4.578125q-0.953125 1.96875 -2.578125 3.0625q-1.609375 1.09375 -3.671875 1.09375zm-0.03125 -3.34375q1.0625 0 1.828125 -0.609375q0.765625 -0.609375 1.1875 -1.8125q0.421875 -1.21875 0.421875 -2.96875q0 -1.78125 -0.421875 -2.96875q-0.421875 -1.203125 -1.1875 -1.8125q-0.765625 -0.625 -1.84375 -0.625q-1.03125 0 -1.8125 0.609375q-0.78125 0.59375 -1.1875 1.796875q-0.40625 1.203125 -0.40625 2.96875q0 1.78125 0.40625 2.984375q0.40625 1.203125 1.1875 1.828125q0.78125 0.609375 1.828125 0.609375zm9.468323 3.078125l10.140625 -16.9375l3.359375 0l-10.140625 16.9375l-3.359375 0zm10.609375 0.234375q-0.984375 0 -1.796875 -0.46875q-0.796875 -0.484375 -1.28125 -1.28125q-0.484375 -0.8125 -0.484375 -1.796875q0 -1.0 0.484375 -1.78125q0.484375 -0.78125 1.265625 -1.265625q0.796875 -0.484375 1.78125 -0.484375q1.03125 0 1.828125 0.484375q0.8125 0.484375 1.28125 1.265625q0.484375 0.78125 0.484375 1.78125q0 0.984375 -0.484375 1.796875q-0.46875 0.8125 -1.28125 1.28125q-0.796875 0.46875 -1.796875 0.46875zm0 -2.484375q0.453125 0 0.734375 -0.28125q0.296875 -0.296875 0.296875 -0.78125q0 -0.4375 -0.296875 -0.734375q-0.28125 -0.296875 -0.734375 -0.296875q-0.4375 0 -0.734375 0.296875q-0.28125 0.296875 -0.28125 0.734375q0 0.484375 0.28125 0.78125q0.296875 0.28125 0.734375 0.28125zm-7.734375 -7.875q-0.984375 0 -1.796875 -0.46875q-0.796875 -0.46875 -1.28125 -1.265625q-0.46875 -0.8125 -0.46875 -1.828125q0 -0.96875 0.46875 -1.765625q0.484375 -0.796875 1.28125 -1.265625q0.796875 -0.46875 1.765625 -0.46875q1.046875 0 1.84375 0.46875q0.796875 0.46875 1.28125 1.265625q0.484375 0.796875 0.484375 1.765625q0 1.015625 -0.484375 1.828125q-0.484375 0.796875 -1.28125 1.265625q-0.796875 0.46875 -1.8125 0.46875zm0 -2.5q0.453125 0 0.734375 -0.28125q0.296875 -0.296875 0.296875 -0.75q0 -0.453125 -0.296875 -0.734375q-0.28125 -0.296875 -0.734375 -0.296875q-0.4375 0 -0.71875 0.296875q-0.28125 0.28125 -0.28125 0.734375q0 0.453125 0.28125 0.75q0.28125 0.28125 0.71875 0.28125z" fill-rule="nonzero"/><path fill="#000000" fill-opacity="0.0" d="m549.66406 419.4908l77.57477 0l0 48.472443l-77.57477 0z" fill-rule="evenodd"/><path fill="#cccccc" d="m571.6133 451.79645q-1.75 0 -3.28125 -0.609375q-1.515625 -0.609375 -2.53125 -1.765625l2.453125 -2.421875q0.453125 0.671875 1.328125 1.09375q0.875 0.40625 1.90625 0.40625q0.921875 0 1.59375 -0.3125q0.671875 -0.328125 1.046875 -0.9375q0.390625 -0.609375 0.390625 -1.4375q0 -0.828125 -0.390625 -1.421875q-0.375 -0.609375 -1.0625 -0.9375q-0.6875 -0.328125 -1.546875 -0.328125q-0.859375 0 -1.578125 0.234375q-0.71875 0.234375 -1.328125 0.6875l0.3125 -2.40625q0.546875 -0.421875 1.046875 -0.703125q0.515625 -0.28125 1.109375 -0.421875q0.609375 -0.140625 1.421875 -0.140625q1.875 0 3.15625 0.765625q1.28125 0.765625 1.9375 2.046875q0.671875 1.265625 0.671875 2.796875q0 1.6875 -0.828125 3.015625q-0.828125 1.3125 -2.328125 2.0625q-1.484375 0.734375 -3.5 0.734375zm-3.0 -7.75l-1.625 -1.515625l0.8125 -7.9375l3.40625 0l-0.890625 7.859375l-1.703125 1.59375zm-0.3125 -6.265625l-0.5 -3.1875l9.53125 0l0 3.1875l-9.03125 0zm18.674316 14.015625q-2.046875 0 -3.703125 -1.09375q-1.65625 -1.109375 -2.609375 -3.09375q-0.9375 -1.984375 -0.9375 -4.578125q0 -2.609375 0.9375 -4.5625q0.9375 -1.96875 2.5625 -3.046875q1.640625 -1.09375 3.703125 -1.09375q2.09375 0 3.71875 1.09375q1.625 1.078125 2.578125 3.046875q0.953125 1.96875 0.953125 4.59375q0 2.609375 -0.953125 4.578125q-0.953125 1.96875 -2.578125 3.0625q-1.609375 1.09375 -3.671875 1.09375zm-0.03125 -3.34375q1.0625 0 1.828125 -0.609375q0.765625 -0.609375 1.1875 -1.8125q0.421875 -1.21875 0.421875 -2.96875q0 -1.78125 -0.421875 -2.96875q-0.421875 -1.203125 -1.1875 -1.8125q-0.765625 -0.625 -1.84375 -0.625q-1.03125 0 -1.8125 0.609375q-0.78125 0.59375 -1.1875 1.796875q-0.40625 1.203125 -0.40625 2.96875q0 1.78125 0.40625 2.984375q0.40625 1.203125 1.1875 1.828125q0.78125 0.609375 1.828125 0.609375zm9.468323 3.078125l10.140625 -16.9375l3.359375 0l-10.140625 16.9375l-3.359375 0zm10.609375 0.234375q-0.984375 0 -1.796875 -0.46875q-0.796875 -0.484375 -1.28125 -1.28125q-0.484375 -0.8125 -0.484375 -1.796875q0 -1.0 0.484375 -1.78125q0.484375 -0.78125 1.265625 -1.265625q0.796875 -0.484375 1.78125 -0.484375q1.03125 0 1.828125 0.484375q0.8125 0.484375 1.28125 1.265625q0.484375 0.78125 0.484375 1.78125q0 0.984375 -0.484375 1.796875q-0.46875 0.8125 -1.28125 1.28125q-0.796875 0.46875 -1.796875 0.46875zm0 -2.484375q0.453125 0 0.734375 -0.28125q0.296875 -0.296875 0.296875 -0.78125q0 -0.4375 -0.296875 -0.734375q-0.28125 -0.296875 -0.734375 -0.296875q-0.4375 0 -0.734375 0.296875q-0.28125 0.296875 -0.28125 0.734375q0 0.484375 0.28125 0.78125q0.296875 0.28125 0.734375 0.28125zm-7.734375 -7.875q-0.984375 0 -1.796875 -0.46875q-0.796875 -0.46875 -1.28125 -1.265625q-0.46875 -0.8125 -0.46875 -1.828125q0 -0.96875 0.46875 -1.765625q0.484375 -0.796875 1.28125 -1.265625q0.796875 -0.46875 1.765625 -0.46875q1.046875 0 1.84375 0.46875q0.796875 0.46875 1.28125 1.265625q0.484375 0.796875 0.484375 1.765625q0 1.015625 -0.484375 1.828125q-0.484375 0.796875 -1.28125 1.265625q-0.796875 0.46875 -1.8125 0.46875zm0 -2.5q0.453125 0 0.734375 -0.28125q0.296875 -0.296875 0.296875 -0.75q0 -0.453125 -0.296875 -0.734375q-0.28125 -0.296875 -0.734375 -0.296875q-0.4375 0 -0.71875 0.296875q-0.28125 0.28125 -0.28125 0.734375q0 0.453125 0.28125 0.75q0.28125 0.28125 0.71875 0.28125z" fill-rule="nonzero"/><path fill="#000000" fill-opacity="0.0" d="m533.66406 475.4908l77.57477 0l0 48.472443l-77.57477 0z" fill-rule="evenodd"/><path fill="#cccccc" d="m555.6133 507.79645q-1.75 0 -3.28125 -0.609375q-1.515625 -0.609375 -2.53125 -1.765625l2.453125 -2.421875q0.453125 0.671875 1.328125 1.09375q0.875 0.40625 1.90625 0.40625q0.921875 0 1.59375 -0.3125q0.671875 -0.328125 1.046875 -0.9375q0.390625 -0.609375 0.390625 -1.4375q0 -0.828125 -0.390625 -1.421875q-0.375 -0.609375 -1.0625 -0.9375q-0.6875 -0.328125 -1.546875 -0.328125q-0.859375 0 -1.578125 0.234375q-0.71875 0.234375 -1.328125 0.6875l0.3125 -2.40625q0.546875 -0.421875 1.046875 -0.703125q0.515625 -0.28125 1.109375 -0.421875q0.609375 -0.140625 1.421875 -0.140625q1.875 0 3.15625 0.765625q1.28125 0.765625 1.9375 2.046875q0.671875 1.265625 0.671875 2.796875q0 1.6875 -0.828125 3.015625q-0.828125 1.3125 -2.328125 2.0625q-1.484375 0.734375 -3.5 0.734375zm-3.0 -7.75l-1.625 -1.515625l0.8125 -7.9375l3.40625 0l-0.890625 7.859375l-1.703125 1.59375zm-0.3125 -6.265625l-0.5 -3.1875l9.53125 0l0 3.1875l-9.03125 0zm18.674316 14.015625q-2.046875 0 -3.703125 -1.09375q-1.65625 -1.109375 -2.609375 -3.09375q-0.9375 -1.984375 -0.9375 -4.578125q0 -2.609375 0.9375 -4.5625q0.9375 -1.96875 2.5625 -3.046875q1.640625 -1.09375 3.703125 -1.09375q2.09375 0 3.71875 1.09375q1.625 1.078125 2.578125 3.046875q0.953125 1.96875 0.953125 4.59375q0 2.609375 -0.953125 4.578125q-0.953125 1.96875 -2.578125 3.0625q-1.609375 1.09375 -3.671875 1.09375zm-0.03125 -3.34375q1.0625 0 1.828125 -0.609375q0.765625 -0.609375 1.1875 -1.8125q0.421875 -1.21875 0.421875 -2.96875q0 -1.78125 -0.421875 -2.96875q-0.421875 -1.203125 -1.1875 -1.8125q-0.765625 -0.625 -1.84375 -0.625q-1.03125 0 -1.8125 0.609375q-0.78125 0.59375 -1.1875 1.796875q-0.40625 1.203125 -0.40625 2.96875q0 1.78125 0.40625 2.984375q0.40625 1.203125 1.1875 1.828125q0.78125 0.609375 1.828125 0.609375zm9.468323 3.078125l10.140625 -16.9375l3.359375 0l-10.140625 16.9375l-3.359375 0zm10.609375 0.234375q-0.984375 0 -1.796875 -0.46875q-0.796875 -0.484375 -1.28125 -1.28125q-0.484375 -0.8125 -0.484375 -1.796875q0 -1.0 0.484375 -1.78125q0.484375 -0.78125 1.265625 -1.265625q0.796875 -0.484375 1.78125 -0.484375q1.03125 0 1.828125 0.484375q0.8125 0.484375 1.28125 1.265625q0.484375 0.78125 0.484375 1.78125q0 0.984375 -0.484375 1.796875q-0.46875 0.8125 -1.28125 1.28125q-0.796875 0.46875 -1.796875 0.46875zm0 -2.484375q0.453125 0 0.734375 -0.28125q0.296875 -0.296875 0.296875 -0.78125q0 -0.4375 -0.296875 -0.734375q-0.28125 -0.296875 -0.734375 -0.296875q-0.4375 0 -0.734375 0.296875q-0.28125 0.296875 -0.28125 0.734375q0 0.484375 0.28125 0.78125q0.296875 0.28125 0.734375 0.28125zm-7.734375 -7.875q-0.984375 0 -1.796875 -0.46875q-0.796875 -0.46875 -1.28125 -1.265625q-0.46875 -0.8125 -0.46875 -1.828125q0 -0.96875 0.46875 -1.765625q0.484375 -0.796875 1.28125 -1.265625q0.796875 -0.46875 1.765625 -0.46875q1.046875 0 1.84375 0.46875q0.796875 0.46875 1.28125 1.265625q0.484375 0.796875 0.484375 1.765625q0 1.015625 -0.484375 1.828125q-0.484375 0.796875 -1.28125 1.265625q-0.796875 0.46875 -1.8125 0.46875zm0 -2.5q0.453125 0 0.734375 -0.28125q0.296875 -0.296875 0.296875 -0.75q0 -0.453125 -0.296875 -0.734375q-0.28125 -0.296875 -0.734375 -0.296875q-0.4375 0 -0.71875 0.296875q-0.28125 0.28125 -0.28125 0.734375q0 0.453125 0.28125 0.75q0.28125 0.28125 0.71875 0.28125z" fill-rule="nonzero"/><path fill="#000000" fill-opacity="0.0" d="m267.07095 219.91647l77.5748 0l0 48.472443l-77.5748 0z" fill-rule="evenodd"/><path fill="#595959" d="m284.72855 249.8471l6.5 -6.71875q0.609375 -0.609375 0.96875 -1.109375q0.359375 -0.5 0.515625 -0.9375q0.171875 -0.453125 0.171875 -0.90625q0 -0.984375 -0.640625 -1.546875q-0.625 -0.5625 -1.65625 -0.5625q-1.015625 0 -1.828125 0.546875q-0.796875 0.53125 -1.53125 1.75l-2.53125 -2.1875q1.015625 -1.703125 2.578125 -2.5625q1.5625 -0.859375 3.578125 -0.859375q1.75 0 3.03125 0.65625q1.28125 0.640625 1.984375 1.84375q0.71875 1.1875 0.71875 2.796875q0 1.015625 -0.265625 1.875q-0.265625 0.84375 -0.859375 1.671875q-0.578125 0.828125 -1.5625 1.8125l-4.515625 4.484375l-4.65625 -0.046875zm0 2.109375l0 -2.109375l3.1875 -1.109375l9.0 0l0 3.21875l-12.1875 0zm19.051575 0.265625q-1.75 0 -3.28125 -0.609375q-1.515625 -0.609375 -2.53125 -1.765625l2.453125 -2.421875q0.453125 0.671875 1.328125 1.09375q0.875 0.40625 1.90625 0.40625q0.921875 0 1.59375 -0.3125q0.671875 -0.328125 1.046875 -0.9375q0.390625 -0.609375 0.390625 -1.4375q0 -0.828125 -0.390625 -1.421875q-0.375 -0.609375 -1.0625 -0.9375q-0.6875 -0.328125 -1.546875 -0.328125q-0.859375 0 -1.578125 0.234375q-0.71875 0.234375 -1.328125 0.6875l0.3125 -2.40625q0.546875 -0.421875 1.046875 -0.703125q0.515625 -0.28125 1.109375 -0.421875q0.609375 -0.140625 1.421875 -0.140625q1.875 0 3.15625 0.765625q1.28125 0.765625 1.9375 2.046875q0.671875 1.265625 0.671875 2.796875q0 1.6875 -0.828125 3.015625q-0.828125 1.3125 -2.328125 2.0625q-1.484375 0.734375 -3.5 0.734375zm-3.0 -7.75l-1.625 -1.515625l0.8125 -7.9375l3.40625 0l-0.890625 7.859375l-1.703125 1.59375zm-0.3125 -6.265625l-0.5 -3.1875l9.53125 0l0 3.1875l-9.03125 0zm12.127472 13.75l10.140625 -16.9375l3.359375 0l-10.140625 16.9375l-3.359375 0zm10.609375 0.234375q-0.984375 0 -1.796875 -0.46875q-0.796875 -0.484375 -1.28125 -1.28125q-0.484375 -0.8125 -0.484375 -1.796875q0 -1.0 0.484375 -1.78125q0.484375 -0.78125 1.265625 -1.265625q0.796875 -0.484375 1.78125 -0.484375q1.03125 0 1.828125 0.484375q0.8125 0.484375 1.28125 1.265625q0.484375 0.78125 0.484375 1.78125q0 0.984375 -0.484375 1.796875q-0.46875 0.8125 -1.28125 1.28125q-0.796875 0.46875 -1.796875 0.46875zm0 -2.484375q0.453125 0 0.734375 -0.28125q0.296875 -0.296875 0.296875 -0.78125q0 -0.4375 -0.296875 -0.734375q-0.28125 -0.296875 -0.734375 -0.296875q-0.4375 0 -0.734375 0.296875q-0.28125 0.296875 -0.28125 0.734375q0 0.484375 0.28125 0.78125q0.296875 0.28125 0.734375 0.28125zm-7.734375 -7.875q-0.984375 0 -1.796875 -0.46875q-0.796875 -0.46875 -1.28125 -1.265625q-0.46875 -0.8125 -0.46875 -1.828125q0 -0.96875 0.46875 -1.765625q0.484375 -0.796875 1.28125 -1.265625q0.796875 -0.46875 1.765625 -0.46875q1.046875 0 1.84375 0.46875q0.796875 0.46875 1.28125 1.265625q0.484375 0.796875 0.484375 1.765625q0 1.015625 -0.484375 1.828125q-0.484375 0.796875 -1.28125 1.265625q-0.796875 0.46875 -1.8125 0.46875zm0 -2.5q0.453125 0 0.734375 -0.28125q0.296875 -0.296875 0.296875 -0.75q0 -0.453125 -0.296875 -0.734375q-0.28125 -0.296875 -0.734375 -0.296875q-0.4375 0 -0.71875 0.296875q-0.28125 0.28125 -0.28125 0.734375q0 0.453125 0.28125 0.75q0.28125 0.28125 0.71875 0.28125z" fill-rule="nonzero"/></g></svg>